<?xml version="1.0" encoding="UTF-8"?>
<svg id="Layer_1" data-name="Layer 1" xmlns="http://www.w3.org/2000/svg" viewBox="0 0 1921.16 552.83">
  <defs>
    <style>
      .cls-1 {
        fill: #0930e3;
      }

      .cls-2 {
        fill: #f607b8;
      }
    </style>
  </defs>
  <g id="Cleanfix">
    <path class="cls-1" d="M271.41,182.22c-11.09-9.28-27.62-30.34-59.77-29.89-52.07.73-71.09,44.38-72.23,66.57-1.13,22.19,14.72,51.62,54.11,52.75s68.38-28.53,68.38-28.53l-21.17,114.88c-145.92,42.03-214.98-34.98-214.98-117.51s60.23-150.42,121.13-173.97c76.76-29.68,140.04-.59,140.04-.59l-15.51,116.29Z"/>
    <polygon class="cls-1" points="329.49 34.14 277.53 364.26 381.79 364.26 435.11 34.14 329.49 34.14"/>
    <path class="cls-1" d="M688.81,274.48s12.03-64.03-22.25-96.74c-25.98-24.79-53.16-32.44-91.53-33.11-28.66-.5-69.06,9.46-100.87,39.4-22.09,20.8-41.92,50.41-42.96,96.28-.78,34.3,23.26,88.47,114.96,89.15,107.66.8,134.83-75.85,134.83-75.85h-102.57s-2.72,18.34-24.45,18.34-21.51-17.66-19.47-37.47h154.3ZM569.26,201.92c22.08,0,22.75,16.98,22.08,27.85h-47.89s3.74-27.85,25.81-27.85Z"/>
    <path class="cls-1" d="M888.34,148.14v28.53s-14.72-32.06-61.13-32.06c-71.78,0-113.89,76.89-114.34,133.72s28.75,91.25,76.3,91.14,76.3-38.61,76.3-38.61l-10.42,33.96h104.28l33.61-216.68h-104.6ZM876.11,253.43c-4.7,45.66-59.58,45.25-57.28,9.06,1.9-29.92,24.65-35.69,33.31-35.77,17.49-.17,25.56,11.32,23.97,26.72Z"/>
    <path class="cls-1" d="M1029.65,147.1h103.92l-11.09,40.75s31.92-44.36,80.15-43.23,64.75,28.74,63.17,66.78-22.87,153.74-22.87,153.74h-105.06l17.43-114.11s4.75-20.83-13.81-20.83-21.28,16.98-21.28,16.98l-19.02,117.96h-105.28l33.74-218.04Z"/>
    <path class="cls-1" d="M1483.16,35.47l-12.45,83.77s-2.49-2.94-15.62-2.94-25.13,9.51-26.72,36.45l35.09-3.4-12,83.77-34.42-1.81-52.08,321.51h-102.34l49.58-321.96-29.43,2.04,12.68-84,29.43,2.49s3.17-71.77,42.11-99.62c38.94-27.85,96-19.92,116.15-16.3Z"/>
    <polygon class="cls-1" points="1492.67 148.45 1460.06 365.13 1565.35 365.13 1599.53 148.45 1492.67 148.45"/>
    <polygon class="cls-1" points="1632.14 148.45 1698.68 253.96 1588.21 365.13 1715.91 365.13 1747.84 316.91 1765.27 365.13 1890.03 365.13 1818.25 253.51 1921.16 148.45 1799.35 148.45 1767.08 196.68 1753.16 148.45 1632.14 148.45"/>
  </g>
  <g id="Rose">
    <path class="cls-2" d="M1530.87,93.04s-17.32-25.83-12.23-51.28c3.06-15.28,9.62-21.85,9.62-21.85,0,0-2.57-8.66-12.59-8.55-7.81.08-16.13,3.99-18.51,18.59-2.72,16.64,7.73,52.56,33.71,63.08Z"/>
    <path class="cls-2" d="M1553.46,38.19s7.81-11.04,25.73-7.9c0,0,3.91-8.07-8.24-10.19-12.14-2.12-21.31,6.45-17.49,18.08Z"/>
    <path class="cls-2" d="M1555.5,43.03s12.74,1.7,33.96-12.91c0,0,1.87,21.31-19.53,33.71,0,0-12.23-9.17-14.43-20.8Z"/>
    <path class="cls-2" d="M1594.64,26.73c-10.19-18.93-33.96-23.01-33.96-23.01,0,0,7.98-5.94,24.54-2.8,16.56,3.14,20.68,12.18,19.36,16.39-1.78,5.69-9.93,9.42-9.93,9.42Z"/>
    <path class="cls-2" d="M1570.19,14.76s-20.97-.68-23.18,14.77c-2.21,15.45,9.08,27.17,14.18,34.3,0,0-6.71,2.8-11.89,0-9.29-5.03-17.81-14.47-17.66-29.72.17-16.9,22.16-35.24,38.55-19.36Z"/>
    <path class="cls-2" d="M1599.99,28.99s-2.04,30.69-33.37,43.85c0,0,27.21,7.33,47.97-4.42,17.41-9.85,19.66-18.5,8.92-29.89,0,0-8.15-8.14-23.52-9.54Z"/>
    <path class="cls-2" d="M1525.44,40.31c12.23,38.97,50.19,41.17,66.48,40.33,0,0-13.05,24.02-40.5,20.12-13.16-1.87-22.37-22.11-26.32-34.3-4.67-14.42.34-26.15.34-26.15Z"/>
    <path class="cls-2" d="M1577.52,101.7s13.12-13.76,23.04-20.21c10.81-7.02,16.58-8.66,23.72-7.13,7.95,1.7,17.83,9.21,17.04,18l-27.23,21.28s-2.32-8.26-10.87-12.17-25.7.23-25.7.23Z"/>
    <path class="cls-2" d="M1510.55,94.68s-1.7,13.7-12.79,23.89c0,0,.85,3.11,5.89,3.45,6.27.42,14.66-.23,23.72-6.85,0,0,.17-2.55-3.23-4.19-4.75-2.3-9.96-6.45-13.58-16.3Z"/>
    <path class="cls-2" d="M1513.81,87.58s9.03,22.33,22.78,26.49c13.75,4.16,21.11,4.42,31.02,11.38s9.65,16.98,14.49,17.66c4.84.68,18.76-7.05,20.72-19.27,1.95-12.23-6.2-18.25-21.57-16.81s-40.13,4.25-67.44-19.44Z"/>
  </g>
  <g>
    <path class="cls-1" d="M545.79,66.67c2.21-10.49,4.58-21.14,6.04-26.93h-.26c-3.81,8.13-18.61,34.04-28.32,51.15h-5.82c-1.79-13.87-6.13-45.33-6.41-51.25h-.22c-.88,5.95-3.53,18.98-5.53,28.54l-4.72,22.71h-6.07l11.8-55.74h9.53c2.43,17.05,5.76,40.64,6.2,47.7h.14c2.34-5.11,17.17-30.54,26.99-47.7h9.59l-11.8,55.74h-6.25l5.12-24.21Z"/>
    <path class="cls-1" d="M611.98,64.12h-26.14l-4.46,21.38h29.91l-2,5.38h-35.29l11.8-55.74h33.82l-1.11,5.38h-27.59l-3.92,18.23h26.14l-1.17,5.38Z"/>
    <path class="cls-1" d="M649.5,35.14l-11.8,55.74h-6.27l11.8-55.74h6.27Z"/>
    <path class="cls-1" d="M670.34,74.81c.69,7.81,5.49,11.66,13.52,11.66,7.55,0,12.7-3.56,12.7-10.6,0-5.19-2.43-8.44-11.73-12.05-10.15-3.9-13.75-7.72-13.75-14.17,0-7.99,5.64-15.32,17.91-15.32s17.37,7.18,17.38,15.31h-6.22c-.69-6.08-3.64-10.06-11.7-10.06-7.38,0-10.93,4.43-10.93,9.35,0,3.99,1.76,6.48,10.31,9.73,11.53,4.37,15.29,9.23,15.29,16.33,0,8.68-5.57,16.68-19.99,16.68-12.66,0-18.87-7.08-19.13-16.87h6.34Z"/>
    <path class="cls-1" d="M741.8,40.51h-17.48l1.17-5.38h41.27l-1.17,5.38h-17.57l-10.57,50.36h-6.27l10.63-50.36Z"/>
    <path class="cls-1" d="M813.74,64.12h-26.14l-4.46,21.38h29.91l-2,5.38h-35.29l11.8-55.74h33.82l-1.11,5.38h-27.59l-3.92,18.23h26.14l-1.17,5.38Z"/>
    <path class="cls-1" d="M844.66,65.57l-5.28,25.31h-6.25l11.8-55.74h18.36c10.33,0,15.58,5.36,15.58,13.35s-4.95,13.24-12.35,14.85c3.35,1.22,7.82,4.59,5.84,14.07-1.36,6.3-2.42,11.18-2.19,13.47h-5.89c-.26-2.4.37-6.67,1.93-13.2,1.73-8.23-.77-12.11-9.57-12.11h-11.98ZM845.84,60.25h11.28c9.47,0,15.29-3.19,15.29-11.09,0-5.95-3.72-8.71-10.27-8.71h-12.13l-4.17,19.8Z"/>
    <path class="cls-1" d="M906.52,35.14h17.7c11.43,0,15.66,6.21,15.66,13.02,0,7.15-4.49,11.84-11.04,13.54,4.38,1.42,8.47,5.51,8.47,11.81,0,12.07-9.38,17.38-21.54,17.38h-21.05l11.8-55.74ZM901.96,85.65h14.16c7.92,0,14.58-3.63,14.64-11.84.06-5.86-3.82-9.95-12.44-9.95h-11.73l-4.62,21.79ZM919.86,58.63c7.93,0,13.49-2.78,13.49-10.09,0-6.04-4.48-8.17-10.31-8.17h-11.43l-3.85,18.27h12.1Z"/>
    <path class="cls-1" d="M994.7,64.12h-26.14l-4.46,21.38h29.91l-2,5.38h-35.29l11.8-55.74h33.82l-1.11,5.38h-27.59l-3.92,18.23h26.14l-1.17,5.38Z"/>
    <path class="cls-1" d="M1037.31,40.51h-17.48l1.17-5.38h41.27l-1.17,5.38h-17.57l-10.57,50.36h-6.27l10.63-50.36Z"/>
    <path class="cls-1" d="M1082.82,65.57l-5.28,25.31h-6.25l11.8-55.74h18.36c10.33,0,15.58,5.36,15.58,13.35s-4.95,13.24-12.35,14.85c3.34,1.22,7.82,4.59,5.84,14.07-1.36,6.3-2.42,11.18-2.19,13.47h-5.89c-.26-2.4.37-6.67,1.93-13.2,1.73-8.23-.77-12.11-9.57-12.11h-11.98ZM1084,60.25h11.28c9.47,0,15.29-3.19,15.29-11.09,0-5.95-3.72-8.71-10.27-8.71h-12.13l-4.17,19.8Z"/>
    <path class="cls-1" d="M1151.01,35.14l-11.8,55.74h-6.27l11.8-55.74h6.27Z"/>
    <path class="cls-1" d="M1204.05,64.12h-26.14l-4.46,21.38h29.91l-2,5.38h-35.29l11.8-55.74h33.82l-1.11,5.38h-27.59l-3.92,18.23h26.14l-1.17,5.38Z"/>
    <path class="cls-1" d="M1235.23,35.14h17.7c11.43,0,15.66,6.21,15.66,13.02,0,7.15-4.49,11.84-11.04,13.54,4.38,1.42,8.48,5.51,8.48,11.81,0,12.07-9.38,17.38-21.54,17.38h-21.05l11.8-55.74ZM1230.67,85.65h14.16c7.92,0,14.58-3.63,14.64-11.84.06-5.86-3.82-9.95-12.44-9.95h-11.73l-4.62,21.79ZM1248.58,58.63c7.93,0,13.49-2.78,13.49-10.09,0-6.04-4.48-8.17-10.31-8.17h-11.43l-3.85,18.27h12.1Z"/>
  </g>
  <g>
    <path class="cls-2" d="M21.61,458.83l-8.06,38.6H4.02l17.99-85h28c15.75,0,23.75,8.17,23.75,20.36s-7.55,20.19-18.83,22.64c5.1,1.85,11.92,7.01,8.91,21.46-2.07,9.61-3.68,17.05-3.34,20.54h-8.98c-.4-3.66.57-10.17,2.94-20.13,2.63-12.55-1.17-18.47-14.59-18.47h-18.26ZM23.41,450.72h17.2c14.44,0,23.31-4.87,23.31-16.91,0-9.07-5.67-13.29-15.66-13.29h-18.49l-6.35,30.19Z"/>
    <path class="cls-2" d="M135.61,456.62h-39.86l-6.8,32.6h45.61l-3.05,8.2h-53.81l17.99-85h51.57l-1.69,8.2h-42.07l-5.98,27.79h39.86l-1.78,8.2Z"/>
    <path class="cls-2" d="M172.57,412.42l-17.99,85h-9.57l17.99-85h9.57Z"/>
    <path class="cls-2" d="M175.27,497.43l17.99-85h12.44c7.48,19.55,25.63,65.24,28.08,74.02h.15c1.4-10.41,4.93-25.38,7.85-39.25l7.35-34.77h9.24l-17.99,85h-11.84c-7.08-18.37-25.59-66.46-28.41-75.71h-.15c-1.68,11.03-4.7,24.7-7.96,40.07l-7.48,35.65h-9.27Z"/>
    <path class="cls-2" d="M288.72,412.42l-17.99,85h-9.57l17.99-85h9.57Z"/>
    <path class="cls-2" d="M357.35,497.43h-7.77c.2-2.93,1.28-9.4,2.18-13.56-5.47,8.66-12.79,14.6-27.69,14.6-19.58,0-29.41-14.31-29.41-33.77,0-26.16,14.94-53.5,45.13-53.5,18.29,0,29.79,10.55,30.23,25.72h-9.33c-1.14-9.5-7.53-17.62-22.3-17.62-21.85,0-33.8,22.2-33.8,44.35,0,15.03,6.49,26.71,21.78,26.71,18.92,0,26.06-14.04,29.31-29.69l.12-.46h-25.76l1.75-8.5h34.88l-9.35,45.71Z"/>
    <path class="cls-2" d="M433.04,456.62h-39.86l-6.8,32.6h45.61l-3.05,8.2h-53.81l17.99-85h51.57l-1.69,8.2h-42.07l-5.98,27.79h39.86l-1.78,8.2Z"/>
    <path class="cls-2" d="M442.32,497.43l17.99-85h12.44c7.48,19.55,25.63,65.24,28.08,74.02h.16c1.4-10.41,4.93-25.38,7.85-39.25l7.35-34.77h9.24l-17.99,85h-11.84c-7.08-18.37-25.59-66.46-28.41-75.71h-.15c-1.68,11.03-4.7,24.7-7.96,40.07l-7.48,35.65h-9.27Z"/>
    <path class="cls-2" d="M641.52,445.43l-26.88,31.9c-10.25,12.07-17.88,21.34-33.5,21.34-13.62,0-22.76-8.86-22.76-21.45s8.49-20.59,26.68-28.57c12.61-5.78,19.73-11.02,19.73-19.51,0-4.69-2.59-10.76-10.29-10.76-8.33,0-12.4,6.79-12.4,13.37,0,5.21,2.7,10.39,7.89,15.96l42.6,49.71h-11.57l-39.4-45.72c-4.77-5.69-8.31-12.26-8.31-18.96,0-12.27,8.08-21.54,21.7-21.54,11.83,0,18.46,8.12,18.46,17.8,0,12.04-8.52,17.83-23.7,24.95-16.75,7.9-21.97,13.69-21.97,22.64,0,7.11,5.71,13.5,14.45,13.5,9.29,0,15.27-4.64,26.74-18.31l22.09-26.34h10.46Z"/>
    <path class="cls-2" d="M685.76,497.43l-4.13-85h9.44c.76,23.86,2.63,66.92,2.13,74.97h.12c2.99-8.96,25.34-53.42,35.31-74.97h9.33c.91,19.42,3.09,66.1,2.57,74.62h.12c3.66-9.57,24.15-50.87,35.29-74.62h9.68l-42.12,85h-10.44c-.87-19.05-2.8-62.47-2.41-72.58h-.12c-4.48,12.15-24.95,52.96-34.41,72.58h-10.35Z"/>
    <path class="cls-2" d="M792.13,470.5l-14.69,26.93h-10.19l47.3-85h11.39l13.08,85h-9.6l-4.1-26.93h-33.19ZM824.44,462.3c-3.13-20.55-5.12-34.46-5.76-41.19h-.12c-3.73,7.56-11.65,22.28-22.09,41.19h27.97Z"/>
    <path class="cls-2" d="M858.77,472.93c1.06,11.91,8.38,17.78,20.62,17.78,11.52,0,19.36-5.43,19.36-16.16,0-7.92-3.7-12.87-17.88-18.37-15.48-5.95-20.97-11.77-20.97-21.62,0-12.18,8.6-23.36,27.32-23.36s26.49,10.95,26.5,23.35h-9.49c-1.05-9.26-5.55-15.34-17.84-15.34-11.25,0-16.67,6.75-16.67,14.26,0,6.09,2.68,9.87,15.73,14.84,17.58,6.66,23.31,14.08,23.31,24.91,0,13.24-8.5,25.44-30.49,25.44-19.3,0-28.77-10.79-29.17-25.72h9.67Z"/>
    <path class="cls-2" d="M987.72,472.53c-6.03,15.7-16.76,25.94-36.78,25.94-21.62,0-30.77-15.26-30.77-34.09,0-25.51,14.02-53.17,43.04-53.17,18.05,0,28.87,10.21,29.71,26.81h-9.89c-.96-11.13-7.38-18.71-20.83-18.71-21,0-31.84,22.62-31.84,44.77,0,14.25,6.15,26.29,21.85,26.29,11.48,0,19.83-5.55,25.41-17.84h10.1Z"/>
    <path class="cls-2" d="M1014.09,412.42h9.57l-7.54,35.38h44.32l7.54-35.38h9.57l-17.99,85h-9.57l8.7-41.42h-44.32l-8.7,41.42h-9.57l17.99-85Z"/>
    <path class="cls-2" d="M1138.19,456.62h-39.86l-6.8,32.6h45.61l-3.05,8.2h-53.81l17.99-85h51.57l-1.69,8.2h-42.07l-5.98,27.79h39.86l-1.78,8.2Z"/>
    <path class="cls-2" d="M1147.47,497.43l17.99-85h12.44c7.48,19.55,25.63,65.24,28.08,74.02h.15c1.4-10.41,4.93-25.38,7.86-39.25l7.35-34.77h9.24l-17.99,85h-11.84c-7.08-18.37-25.59-66.46-28.41-75.71h-.15c-1.68,11.03-4.7,24.7-7.96,40.07l-7.48,35.65h-9.27Z"/>
  </g>
  <g id="Inh._Jörg" data-name="Inh. Jörg">
    <path class="cls-2" d="M1615.54,446.73c3.18,0,5.15-2.82,6-6.71.7-3.19.21-6.24-3.59-6.24-4,0-6.06,4.5-6.06,8.55,0,2.86,1.23,4.4,3.65,4.4Z"/>
    <path class="cls-2" d="M1607.46,467.55c-2.68,0-4.47,1.78-5.3,4.83h8.74c.09-.43.1-.8.1-1.13,0-2.17-.99-3.69-3.55-3.69Z"/>
    <path class="cls-2" d="M1728.23,437.25c0-2.17-.99-3.69-3.55-3.69s-4.47,1.78-5.3,4.83h8.74c.09-.43.11-.8.11-1.13Z"/>
    <path class="cls-2" d="M1751.8,467.55c-2.68,0-4.47,1.78-5.3,4.83h8.74c.09-.43.1-.8.1-1.13,0-2.17-.99-3.69-3.55-3.69Z"/>
    <path class="cls-2" d="M1581.89,447.44c4.21,0,5.97-5.43,5.97-9.18,0-2.93-1.25-4.59-3.8-4.59-4.07,0-5.93,5.41-5.93,9.11,0,3.02,1.35,4.66,3.76,4.66Z"/>
    <path class="cls-2" d="M1687.49,467.55c-2.68,0-4.47,1.78-5.3,4.83h8.74c.09-.43.11-.8.11-1.13,0-2.17-.99-3.69-3.55-3.69Z"/>
    <path class="cls-2" d="M1666.32,467.78c-4,0-6.06,4.5-6.06,8.55,0,2.86,1.23,4.4,3.65,4.4,3.18,0,5.15-2.82,6-6.71.7-3.19.21-6.24-3.59-6.24Z"/>
    <path class="cls-2" d="M1700.7,447.22c3.61,0,5.5-3.16,6.31-7.38.75-3.74-.34-5.96-3.67-5.96-4.11,0-6.29,4.8-6.29,8.72,0,3.04,1.26,4.62,3.65,4.62Z"/>
    <path class="cls-2" d="M1530.17,471.25c0-2.17-.99-3.69-3.55-3.69s-4.47,1.78-5.3,4.83h8.74c.09-.43.11-.8.11-1.13Z"/>
    <path class="cls-2" d="M1449.92,414.73l-12.57,79.58h441.96l12.57-79.58h-441.96ZM1814.78,430.16c5.66,0,7.6,3.56,7.6,7.46,0,1.46-.18,2.62-.52,3.83h-13.18c-.09.58-.14.96-.14,1.5,0,2.66,1.14,4.52,3.7,4.52s3.58-1.35,4.35-2.81h4.58c-1.2,3.02-3.71,6.29-9.35,6.29-5.23,0-7.72-3.35-7.72-8.1,0-5.43,2.97-12.69,10.68-12.69ZM1786.45,430.55h4.41c.94,8.69,1.47,14.42,1.55,16.47h.04c1.06-2.19,3.45-7.55,7.98-16.47h4.62l-11,21c-3.42,6.54-5.48,7.15-9.43,7.15-.66,0-1.85-.12-2.5-.26l.84-3.71c.39.08.91.17,1.77.17,2.51,0,3.32-1.03,4.55-3.19l-2.83-21.15ZM1776.21,430.16c5.66,0,7.6,3.56,7.6,7.46,0,1.46-.18,2.62-.52,3.83h-13.18c-.09.58-.14.96-.14,1.5,0,2.66,1.14,4.52,3.7,4.52s3.58-1.35,4.35-2.81h4.58c-1.2,3.02-3.71,6.29-9.35,6.29-5.23,0-7.72-3.35-7.72-8.1,0-5.43,2.97-12.69,10.68-12.69ZM1770.96,456.02l-.98,4.67h-4.4l.98-4.67h4.4ZM1724.84,430.16c5.66,0,7.6,3.56,7.6,7.46,0,1.46-.18,2.62-.52,3.83h-13.18c-.09.58-.14.96-.14,1.5,0,2.66,1.14,4.52,3.7,4.52s3.58-1.35,4.35-2.81h4.58c-1.2,3.02-3.71,6.29-9.35,6.29-5.23,0-7.72-3.35-7.72-8.1,0-5.43,2.97-12.69,10.68-12.69ZM1703,430.16c3.08,0,4.88,1.44,5.33,2.54l2.27-10.68h4.4l-4.86,23.05c-.39,1.85-.81,3.68-1.12,5.49h-4.26c.04-.67.2-1.6.41-2.71-1.3,1.93-3.21,3.1-6.16,3.1-4.29,0-6.57-3.12-6.57-7.87,0-6.01,3.61-12.92,10.56-12.92ZM1688.94,422.02h4.4l-.98,4.67h-4.4l.98-4.67ZM1687.14,430.55h4.4l-4.24,20.01h-4.4l4.24-20.01ZM1674.34,430.16c5.66,0,7.6,3.56,7.6,7.46,0,1.46-.18,2.62-.52,3.83h-13.18c-.09.58-.14.96-.14,1.5,0,2.66,1.14,4.52,3.7,4.52s3.58-1.35,4.35-2.81h4.58c-1.2,3.02-3.71,6.29-9.35,6.29-5.23,0-7.72-3.35-7.72-8.1,0-5.43,2.97-12.69,10.68-12.69ZM1642.76,423.56h4.58l-2.29,10.76h11.86l2.29-10.76h4.58l-5.72,27h-4.58l2.63-12.43h-11.86l-2.63,12.43h-4.58l5.72-27ZM1656.46,456.02l-.98,4.67h-4.4l.98-4.67h4.4ZM1617.39,430.16c3.26,0,4.98,1.41,5.45,2.75.2-.75.56-1.88.74-2.36h4.22c-.36,1.52-.79,3.41-1.16,5.13l-2.65,12.37c-1.36,6.42-3.23,10.65-10.65,10.65s-7.85-3.89-7.87-6.23h4.45c.05,1.47,1.04,2.85,3.8,2.85,3.54,0,4.79-2.29,5.8-6.74l.25-1.11c-1.34,1.9-3.2,2.92-5.96,2.92-4.17,0-6.57-2.99-6.57-7.73,0-5.91,3.7-12.49,10.13-12.49ZM1626.63,456.02l-.98,4.67h-4.4l.98-4.67h4.4ZM1596.36,436.47c.42-1.96.82-4.08,1.16-5.92h4.25c-.04.51-.28,2.22-.64,3.89,1.41-2.58,3.52-4.28,6.82-4.28l-.93,4.47c-3.72.15-6.42,2.53-7.35,6.95l-1.9,8.98h-4.4l3-14.08ZM1588.03,422.06h3.66l-.98,4.67h-3.66l.98-4.67ZM1580.9,422.06h3.66l-.98,4.67h-3.66l.98-4.67ZM1584.42,430.16c4.7,0,8,2.81,8,8.45,0,4.95-2.85,12.34-10.99,12.34-5.25,0-7.87-3.25-7.87-8.18,0-5.45,3.4-12.61,10.86-12.61ZM1575.97,456.02l-.98,4.67h-4.4l.98-4.67h4.4ZM1558.96,446.87c.67.17,1.55.25,2.42.25,2.65,0,3.32-1.73,3.82-3.98l4.14-19.58h4.58l-4.23,19.9c-.95,4.55-2.76,7.49-8.12,7.49-1,0-2.6-.18-3.43-.4l.82-3.67ZM1545.19,444.19h4.74l-1.35,6.38h-4.75l1.35-6.38ZM1529.59,422.02h4.4l-2.4,11.36c1.27-1.69,3.14-3.22,6.31-3.22s6.25,1.77,5.04,7.57l-2.7,12.83h-4.38l2.55-12.18c.62-2.95,0-4.47-2.59-4.47-2.93,0-4.79,2.27-5.47,5.44l-2.39,11.21h-4.4l6.03-28.54ZM1506.65,430.55h4.31c-.05.59-.36,2.38-.49,2.9,1.02-1.47,2.86-3.29,6.33-3.29,3.88,0,6.2,2.31,4.95,8.12l-2.59,12.28h-4.38l2.57-12.26c.56-2.58-.01-4.39-2.61-4.39-3.06,0-4.89,2.58-5.71,6.45l-2.16,10.2h-4.4l3.16-14.93c.35-1.72.71-3.41,1-5.08ZM1493.34,450.56l5.72-27h4.58l-5.72,27h-4.58ZM1508.05,484.56h-4.58l4.9-23.19h-8.1l.82-3.8h20.78l-.82,3.8h-8.1l-4.89,23.19ZM1523.83,484.95c-5.23,0-7.72-3.35-7.72-8.1,0-5.43,2.97-12.69,10.68-12.69,5.66,0,7.6,3.56,7.6,7.46,0,1.46-.18,2.62-.52,3.83h-13.18c-.09.58-.14.96-.14,1.5,0,2.66,1.14,4.52,3.7,4.52s3.58-1.35,4.35-2.81h4.58c-1.2,3.02-3.71,6.29-9.35,6.29ZM1546.21,484.56c-1.29-2.92-2.45-5.91-2.91-6.86h-.04c-.72.97-2.84,3.76-5.35,6.86h-4.98l8.4-10.18-4.4-9.83h4.67c1.33,3.01,2.44,5.84,2.86,6.74h.04c1.05-1.33,2.59-3.31,5.3-6.74h5.06l-8.38,9.77,4.51,10.24h-4.79ZM1562.65,484.42c-1.07.35-2.22.36-3.23.36-3.73,0-4.53-2.02-3.82-5.44l2.38-11.35h-3.12l.77-3.45h3.12l1.2-5.56h4.37l-1.17,5.56h3.98l-.77,3.45h-3.98l-2.29,10.95c-.32,1.5-.21,2.34,1.43,2.34.6,0,1.23-.04,1.83-.14l-.71,3.28ZM1569.94,484.56h-4.4l4.24-20.01h4.4l-4.24,20.01ZM1574.35,484.56l6.03-28.54h4.4l-6.03,28.54h-4.4ZM1589.42,475.57l-1.9,8.98h-4.4l3-14.08c.42-1.96.82-4.08,1.16-5.92h4.25c-.04.51-.28,2.22-.64,3.89,1.41-2.58,3.52-4.28,6.82-4.28l-.92,4.47c-3.72.15-6.42,2.53-7.35,6.95ZM1614.72,475.44h-13.18c-.09.58-.14.96-.14,1.5,0,2.66,1.14,4.52,3.7,4.52s3.58-1.35,4.35-2.81h4.58c-1.2,3.02-3.71,6.29-9.35,6.29-5.23,0-7.73-3.35-7.73-8.1,0-5.43,2.97-12.69,10.68-12.69,5.66,0,7.6,3.56,7.6,7.46,0,1.46-.18,2.62-.52,3.83ZM1620.59,484.56h-4.4l4.24-20.01h4.4l-4.24,20.01ZM1644.24,472.28l-2.59,12.28h-4.38l2.57-12.26c.56-2.58-.01-4.39-2.61-4.39-3.06,0-4.89,2.58-5.71,6.45l-2.16,10.2h-4.4l3.16-14.93c.35-1.72.71-3.41,1-5.08h4.31c-.05.59-.36,2.38-.49,2.9,1.02-1.47,2.86-3.29,6.33-3.29,3.88,0,6.2,2.31,4.95,8.12ZM1646.03,484.56l4.24-20.01h4.4l-4.24,20.01h-4.4ZM1675.02,469.68l-2.65,12.37c-1.36,6.42-3.23,10.65-10.65,10.65s-7.85-3.89-7.87-6.23h4.45c.05,1.47,1.04,2.85,3.8,2.85,3.54,0,4.79-2.29,5.8-6.74l.25-1.11c-1.34,1.9-3.2,2.92-5.96,2.92-4.17,0-6.57-2.99-6.57-7.73,0-5.91,3.7-12.49,10.13-12.49,3.26,0,4.98,1.41,5.45,2.75.2-.75.56-1.88.74-2.36h4.22c-.36,1.52-.79,3.41-1.16,5.13ZM1694.74,475.44h-13.18c-.09.58-.14.96-.14,1.5,0,2.66,1.14,4.52,3.7,4.52s3.58-1.35,4.35-2.81h4.58c-1.2,3.02-3.71,6.29-9.35,6.29-5.23,0-7.72-3.35-7.72-8.1,0-5.43,2.97-12.69,10.68-12.69,5.66,0,7.6,3.56,7.6,7.46,0,1.46-.18,2.62-.52,3.83ZM1702.48,475.57l-1.9,8.98h-4.4l3-14.08c.42-1.96.82-4.08,1.16-5.92h4.25c-.04.51-.28,2.22-.64,3.89,1.41-2.58,3.52-4.28,6.82-4.28l-.93,4.47c-3.72.15-6.42,2.53-7.35,6.95ZM1738.87,471.55l-2.75,13h-4.3l2.64-12.47c.43-2.03.35-4.21-2.45-4.21s-4.12,2.17-4.79,5.35l-2.4,11.32h-4.34l2.62-12.36c.51-2.42.19-4.29-2.34-4.29-2.71,0-4.26,2.19-4.97,5.66l-2.31,10.99h-4.35l3.04-14.4c.39-1.88.79-3.76,1.12-5.61h4.31c-.06.5-.25,1.78-.45,2.66,1.29-1.72,2.86-3.05,5.75-3.05s4.23,1.25,4.59,3.4c1.4-1.84,3.38-3.4,6.59-3.4s5.95,1.94,4.78,7.39ZM1759.05,475.44h-13.18c-.09.58-.14.96-.14,1.5,0,2.66,1.14,4.52,3.7,4.52s3.58-1.35,4.35-2.81h4.58c-1.2,3.02-3.71,6.29-9.35,6.29-5.23,0-7.73-3.35-7.73-8.1,0-5.43,2.97-12.69,10.68-12.69,5.66,0,7.6,3.56,7.6,7.46,0,1.46-.18,2.62-.52,3.83ZM1756.05,450.56l2.64-12.47c.43-2.03.35-4.21-2.45-4.21s-4.12,2.17-4.79,5.35l-2.41,11.32h-4.34l2.62-12.36c.51-2.42.19-4.29-2.34-4.29-2.71,0-4.26,2.19-4.97,5.66l-2.31,10.99h-4.35l3.04-14.4c.39-1.88.79-3.76,1.12-5.61h4.31c-.06.5-.25,1.78-.45,2.66,1.29-1.72,2.86-3.05,5.76-3.05s4.23,1.25,4.59,3.4c1.4-1.84,3.38-3.4,6.59-3.4s5.95,1.94,4.78,7.39l-2.75,13h-4.3ZM1760.53,484.56l4.24-20.01h4.4l-4.24,20.01h-4.4ZM1779.43,472.37c4.47,1.48,6.13,3.26,6.13,6.04,0,4.33-3.74,6.54-8.5,6.54-5.23,0-8.04-2.51-7.91-6.5h4.46c.17,1.88,1.37,3.14,3.98,3.14,2.33,0,3.4-1.1,3.4-2.68s-1.16-2.27-3.81-3.16c-4.52-1.47-5.91-3.05-5.91-5.45,0-3.4,2.64-6.13,7.74-6.13,5.41,0,7.67,2.86,7.55,5.92h-4.46c-.09-1.22-.69-2.59-3.37-2.59-1.63,0-3.03.69-3.03,2.26,0,1.22,1.09,1.73,3.72,2.62ZM1795.55,484.42c-1.07.35-2.22.36-3.23.36-3.73,0-4.53-2.02-3.81-5.44l2.38-11.35h-3.12l.77-3.45h3.12l1.2-5.56h4.38l-1.17,5.56h3.98l-.77,3.45h-3.98l-2.29,10.95c-.32,1.5-.21,2.34,1.43,2.34.6,0,1.23-.04,1.83-.14l-.71,3.28ZM1816.65,475.44h-13.18c-.09.58-.14.96-.14,1.5,0,2.66,1.14,4.52,3.7,4.52s3.58-1.35,4.35-2.81h4.58c-1.2,3.02-3.71,6.29-9.35,6.29-5.23,0-7.73-3.35-7.73-8.1,0-5.43,2.97-12.69,10.68-12.69,5.66,0,7.6,3.56,7.6,7.46,0,1.46-.18,2.62-.52,3.83ZM1831.75,468.63c-3.72.15-6.42,2.53-7.35,6.95l-1.9,8.98h-4.4l3-14.08c.42-1.96.82-4.08,1.16-5.92h4.25c-.04.51-.28,2.22-.64,3.89,1.41-2.58,3.52-4.28,6.82-4.28l-.93,4.47ZM1836.96,434.63c-3.72.15-6.42,2.53-7.35,6.95l-1.9,8.98h-4.4l3-14.08c.42-1.96.82-4.08,1.16-5.92h4.25c-.04.51-.28,2.22-.64,3.89,1.41-2.58,3.52-4.28,6.82-4.28l-.92,4.47Z"/>
    <path class="cls-2" d="M1818.16,437.25c0-2.17-.99-3.69-3.55-3.69s-4.47,1.78-5.3,4.83h8.74c.09-.43.11-.8.11-1.13Z"/>
    <path class="cls-2" d="M1677.72,437.25c0-2.17-.99-3.69-3.55-3.69s-4.47,1.78-5.3,4.83h8.74c.09-.43.11-.8.11-1.13Z"/>
    <path class="cls-2" d="M1809.4,467.55c-2.68,0-4.47,1.78-5.3,4.83h8.74c.09-.43.1-.8.1-1.13,0-2.17-.99-3.69-3.55-3.69Z"/>
    <path class="cls-2" d="M1779.59,437.25c0-2.17-.99-3.69-3.55-3.69s-4.47,1.78-5.3,4.83h8.74c.09-.43.11-.8.11-1.13Z"/>
  </g>
</svg>