<?xml version="1.0" encoding="UTF-8"?>
<svg id="Layer_1" data-name="Layer 1" xmlns="http://www.w3.org/2000/svg" viewBox="0 0 400 390.66">
  <defs>
    <style>
      .cls-1 {
        fill: #f607b8;
      }
    </style>
  </defs>
  <g id="Rose">
    <path class="cls-1" d="M305.6,253.91s47.9-70.5,33.82-139.96c-8.46-41.71-26.62-59.63-26.62-59.63,0,0,7.12-23.62,34.84-23.33,21.61.23,44.61,10.89,51.2,50.75,7.52,45.42-21.37,143.43-93.24,172.17Z"/>
    <path class="cls-1" d="M243.13,104.22s-21.61-30.12-71.16-21.55c0,0-10.8-22.01,22.78-27.81s58.95,17.61,48.38,49.36Z"/>
    <path class="cls-1" d="M237.49,117.43s-35.23,4.63-93.95-35.22c0,0-5.17,58.16,54.02,91.99,0,0,33.82-25.03,39.93-56.77Z"/>
    <path class="cls-1" d="M129.22,72.94c28.18-51.67,93.95-62.8,93.95-62.8,0,0-22.08-16.22-67.88-7.65-45.8,8.57-57.19,33.25-53.55,44.72,4.93,15.53,27.48,25.72,27.48,25.72Z"/>
    <path class="cls-1" d="M196.86,40.27s58.01-1.85,64.12,40.32c6.11,42.17-25.13,74.15-39.22,93.61,0,0,18.55,7.65,32.88,0,25.7-13.71,49.28-39.48,48.85-81.1-.47-46.11-61.3-96.16-106.63-52.83Z"/>
    <path class="cls-1" d="M114.42,79.11s5.64,83.74,92.3,119.66c0,0-75.27,20.01-132.7-12.05-48.15-26.88-54.39-50.49-24.66-81.56,0,0,22.55-22.2,65.06-26.05Z"/>
    <path class="cls-1" d="M320.63,110.02c-33.82,106.36-138.83,112.36-183.9,110.07,0,0,36.1,65.55,112.03,54.92,36.4-5.1,61.89-60.33,72.81-93.61,12.92-39.37-.94-71.37-.94-71.37Z"/>
    <path class="cls-1" d="M176.58,277.55s-36.28-37.56-63.73-55.15c-29.91-19.16-45.88-23.64-65.61-19.46C25.27,207.58-2.06,228.07.12,252.06l75.31,58.08s6.42-22.55,30.06-33.21c23.64-10.66,71.09.62,71.09.62Z"/>
    <path class="cls-1" d="M361.81,258.39s4.7,37.38,35.39,65.19c0,0-2.35,8.5-16.28,9.42-17.35,1.15-40.55-.62-65.61-18.69,0,0-.47-6.95,8.92-11.43,13.14-6.27,27.56-17.61,37.58-44.49Z"/>
    <path class="cls-1" d="M352.8,239.01s-24.96,60.94-63.01,72.3c-38.05,11.35-58.39,12.05-85.8,31.05-27.41,19-26.7,46.34-40.09,48.2-13.39,1.85-51.9-19.23-57.31-52.6-5.4-33.37,17.15-49.82,59.66-45.88,42.51,3.94,110.99,11.59,186.55-53.06Z"/>
  </g>
</svg>