<?xml version="1.0" encoding="UTF-8"?>
<svg id="Layer_1" data-name="Layer 1" xmlns="http://www.w3.org/2000/svg" viewBox="0 0 429.32 377.99">
  <defs>
    <style>
      .cls-1 {
        fill: #f607b8;
      }
    </style>
  </defs>
  <g id="Rose">
    <path class="cls-1" d="M134.28,281.64s-64.2-56.06-68.18-126.82c-2.39-42.49,10.64-64.43,10.64-64.43,0,0-12.88-21.05-39.61-13.74C16.29,82.36-3.26,98.5.46,138.72c4.24,45.84,57.02,133.34,133.82,142.92Z"/>
    <path class="cls-1" d="M156.79,121.01s13.27-34.62,63.38-38.88c0,0,4.87-24.03-29.08-21.13s-52.56,31.97-34.3,60Z"/>
    <path class="cls-1" d="M165.59,132.36s35.25-4.44,81.96-57.88c0,0,19.74,54.95-28.95,102.68,0,0-39.06-15.64-53.01-44.8Z"/>
    <path class="cls-1" d="M259.05,61.89c-40.36-42.85-106.79-36.94-106.79-36.94,0,0,17.25-21.28,63.72-24.6,46.48-3.31,63.75,17.68,63.13,29.69-.84,16.27-20.07,31.84-20.07,31.84Z"/>
    <path class="cls-1" d="M185.34,47.42s-56.59,12.91-51.81,55.25,43.1,65.36,61.66,80.62c0,0-16.01,12.1-31.81,8.33-28.33-6.76-57.67-25.71-67.81-66.08-11.23-44.73,34.93-108.56,89.76-78.12Z"/>
    <path class="cls-1" d="M274.93,64.1s15.77,82.44-58.97,139.14c0,0,77.88.29,125.31-45.28,39.77-38.2,39.82-62.63,3.19-85.15,0,0-27.44-15.76-69.53-8.71Z"/>
    <path class="cls-1" d="M83.28,146.25c59.67,94.32,162.77,73.52,205.79,59.88,0,0-18.31,72.56-94.46,81.51-36.51,4.29-75.15-42.68-94.15-72.11-22.47-34.81-17.17-69.28-17.17-69.28Z"/>
    <path class="cls-1" d="M265.08,271.82s25.58-45.53,47.67-69.5c24.07-26.12,38.39-34.49,58.53-35.45,22.44-1.07,54.07,11.82,58.04,35.58l-58.14,75.27s-11.92-20.19-37.5-24.51c-25.57-4.32-68.61,18.61-68.61,18.61Z"/>
    <path class="cls-1" d="M81.04,300.22s4.93,37.35-17.71,72.03c0,0,4.42,7.62,18.14,4.99,17.08-3.28,39.07-10.87,58.73-34.7,0,0-1.31-6.84-11.53-8.8-14.3-2.73-31.12-10.05-47.62-33.52Z"/>
    <path class="cls-1" d="M84.84,279.18s39.59,52.63,79.27,53.97c39.68,1.34,59.54-3.14,90.86,8.3,31.33,11.44,37.57,38.07,50.99,36.47,13.42-1.6,45.34-31.76,42.11-65.4-3.23-33.65-29.21-43.85-69.33-29.27-40.13,14.58-104.44,39.33-193.91-4.06Z"/>
  </g>
</svg>