<?xml version="1.0" encoding="UTF-8"?>
<svg id="Mascot" xmlns="http://www.w3.org/2000/svg" viewBox="0 0 940.59 198.62">
  <defs>
    <style>
      .cls-1 {
        fill: #005300;
      }

      .cls-2 {
        fill: #fff;
      }

      .cls-3 {
        fill: none;
        stroke: #fff;
        stroke-width: 12px;
      }

      .cls-4 {
        fill: #77b903;
      }
    </style>
  </defs>
  <g id="Text">
    <g>
      <rect class="cls-3" x="343.91" y="103.8" width="52.36" height="40.54"/>
      <g>
        <path class="cls-3" d="M7.28,15.49v14.75c0,4.53,3.68,8.21,8.21,8.21h43.51c6.44,0,11.67,5.22,11.67,11.67v129.72c0,6.44,5.22,11.67,11.67,11.67h13.09c6.44,0,11.67-5.22,11.67-11.67V50.12c0-6.44,5.22-11.67,11.67-11.67h40.06c6.44,0,11.67-5.22,11.67-11.67v-7.84c0-6.44-5.22-11.67-11.67-11.67H15.49c-4.53,0-8.21,3.68-8.21,8.21Z"/>
        <path class="cls-3" d="M158.82,7.28c6.44,0,11.67,5.22,11.67,11.67v7.84c0,6.44-5.22,11.67-11.67,11.67h-40.06c-6.44,0-11.67,5.22-11.67,11.67v129.72c0,6.44-5.22,11.67-11.67,11.67h-13.09c-6.44,0-11.67-5.22-11.67-11.67V50.12c0-6.44-5.22-11.67-11.67-11.67H15.49c-4.53,0-8.21-3.68-8.21-8.21v-14.75c0-4.53,3.68-8.21,8.21-8.21h143.33M158.82,6.28H15.49c-5.08,0-9.21,4.13-9.21,9.21v14.75c0,5.08,4.13,9.21,9.21,9.21h43.51c5.88,0,10.67,4.79,10.67,10.67v129.72c0,6.98,5.68,12.67,12.67,12.67h13.09c6.98,0,12.67-5.68,12.67-12.67V50.12c0-5.88,4.79-10.67,10.67-10.67h40.06c6.98,0,12.67-5.68,12.67-12.67v-7.84c0-6.98-5.68-12.67-12.67-12.67h0Z"/>
      </g>
      <g>
        <path class="cls-3" d="M223.41,54.68h-1.42c-19.33,0-35,15.67-35,35v90.15c0,6.44,5.22,11.67,11.67,11.67h13.09c6.44,0,11.67-5.22,11.67-11.67v-77.06c0-6.44,5.22-11.67,11.67-11.67h34.34c6.44,0,11.67-5.22,11.67-11.67v-13.09c0-6.44-5.22-11.67-11.67-11.67h-46Z"/>
        <path class="cls-3" d="M269.42,54.68c6.44,0,11.67,5.22,11.67,11.67v13.09c0,6.44-5.22,11.67-11.67,11.67h-34.34c-6.44,0-11.67,5.22-11.67,11.67v77.06c0,6.44-5.22,11.67-11.67,11.67h-13.09c-6.44,0-11.67-5.22-11.67-11.67v-90.15c0-19.33,15.67-35,35-35h47.42M269.42,53.68h-47.42c-19.85,0-36,16.15-36,36v90.15c0,6.98,5.68,12.67,12.67,12.67h13.09c6.98,0,12.67-5.68,12.67-12.67v-77.06c0-5.88,4.79-10.67,10.67-10.67h34.34c6.98,0,12.67-5.68,12.67-12.67v-13.09c0-6.98-5.68-12.67-12.67-12.67h0Z"/>
      </g>
      <g>
        <path class="cls-3" d="M334.01,143.41v-40.64c0-6.44,5.22-11.67,11.67-11.67h51.03c6.44,0,11.67,5.22,11.67,11.67v40.64c0,6.44-5.22,11.67-11.67,11.67h-51.03c-6.44,0-11.67-5.22-11.67-11.67ZM297.58,89.68v66.82c0,19.33,15.67,35,35,35h77.21c19.33,0,35-15.67,35-35v-66.82c0-19.33-15.67-35-35-35h-77.21c-19.33,0-35,15.67-35,35Z"/>
        <path class="cls-3" d="M409.8,54.68c19.33,0,35,15.67,35,35v66.82c0,19.33-15.67,35-35,35h-77.21c-19.33,0-35-15.67-35-35v-66.82c0-19.33,15.67-35,35-35h77.21M345.68,155.08h51.03c6.44,0,11.67-5.22,11.67-11.67v-40.64c0-6.44-5.22-11.67-11.67-11.67h-51.03c-6.44,0-11.67,5.22-11.67,11.67v40.64c0,6.44,5.22,11.67,11.67,11.67M409.8,53.68h-77.21c-19.85,0-36,16.15-36,36v66.82c0,19.85,16.15,36,36,36h77.21c19.85,0,36-16.15,36-36v-66.82c0-19.85-16.15-36-36-36h0ZM345.68,154.08c-5.88,0-10.67-4.79-10.67-10.67v-40.64c0-5.88,4.79-10.67,10.67-10.67h51.03c5.88,0,10.67,4.79,10.67,10.67v40.64c0,5.88-4.79,10.67-10.67,10.67h-51.03Z"/>
      </g>
      <g>
        <rect class="cls-3" x="461.3" y="7.28" width="36.42" height="184.22" rx="5" ry="5"/>
        <path class="cls-3" d="M492.72,7.28c2.76,0,5,2.24,5,5v174.22c0,2.76-2.24,5-5,5h-26.42c-2.76,0-5-2.24-5-5V12.28c0-2.76,2.24-5,5-5h26.42M492.72,6.28h-26.42c-3.31,0-6,2.69-6,6v174.22c0,3.31,2.69,6,6,6h26.42c3.31,0,6-2.69,6-6V12.28c0-3.31-2.69-6-6-6h0Z"/>
      </g>
      <g>
        <rect class="cls-3" x="514.22" y="7.28" width="36.42" height="184.22" rx="5" ry="5"/>
        <path class="cls-3" d="M545.65,7.28c2.76,0,5,2.24,5,5v174.22c0,2.76-2.24,5-5,5h-26.42c-2.76,0-5-2.24-5-5V12.28c0-2.76,2.24-5,5-5h26.42M545.65,6.28h-26.42c-3.31,0-6,2.69-6,6v174.22c0,3.31,2.69,6,6,6h26.42c3.31,0,6-2.69,6-6V12.28c0-3.31-2.69-6-6-6h0Z"/>
      </g>
      <g>
        <rect class="cls-3" x="583.64" y="104.88" width="92.11" height="36.42" rx="5" ry="5"/>
        <path class="cls-3" d="M670.76,104.88c2.76,0,5,2.24,5,5v26.42c0,2.76-2.24,5-5,5h-82.11c-2.76,0-5-2.24-5-5v-26.42c0-2.76,2.24-5,5-5h82.11M670.76,103.88h-82.11c-3.31,0-6,2.69-6,6v26.42c0,3.31,2.69,6,6,6h82.11c3.31,0,6-2.69,6-6v-26.42c0-3.31-2.69-6-6-6h0Z"/>
      </g>
      <g>
        <rect class="cls-3" x="708.76" y="7.28" width="36.42" height="184.22" rx="5" ry="5"/>
        <path class="cls-3" d="M740.18,7.28c2.76,0,5,2.24,5,5v174.22c0,2.76-2.24,5-5,5h-26.42c-2.76,0-5-2.24-5-5V12.28c0-2.76,2.24-5,5-5h26.42M740.18,6.28h-26.42c-3.31,0-6,2.69-6,6v174.22c0,3.31,2.69,6,6,6h26.42c3.31,0,6-2.69,6-6V12.28c0-3.31-2.69-6-6-6h0Z"/>
      </g>
      <g>
        <path class="cls-3" d="M769.93,18.95v7.84c0,6.44,5.22,11.67,11.67,11.67h40.06c6.44,0,11.67,5.22,11.67,11.67v129.72c0,6.44,5.22,11.67,11.67,11.67h13.09c6.44,0,11.67-5.22,11.67-11.67V50.12c0-6.44,5.22-11.67,11.67-11.67h40.06c6.44,0,11.67-5.22,11.67-11.67v-7.84c0-6.44-5.22-11.67-11.67-11.67h-139.87c-6.44,0-11.67,5.22-11.67,11.67Z"/>
        <path class="cls-3" d="M921.47,7.28c6.44,0,11.67,5.22,11.67,11.67v7.84c0,6.44-5.22,11.67-11.67,11.67h-40.06c-6.44,0-11.67,5.22-11.67,11.67v129.72c0,6.44-5.22,11.67-11.67,11.67h-13.09c-6.44,0-11.67-5.22-11.67-11.67V50.12c0-6.44-5.22-11.67-11.67-11.67h-40.06c-6.44,0-11.67-5.22-11.67-11.67v-7.84c0-6.44,5.22-11.67,11.67-11.67h139.87M921.47,6.28h-139.87c-6.98,0-12.67,5.68-12.67,12.67v7.84c0,6.98,5.68,12.67,12.67,12.67h40.06c5.88,0,10.67,4.79,10.67,10.67v129.72c0,6.98,5.68,12.67,12.67,12.67h13.09c6.98,0,12.67-5.68,12.67-12.67V50.12c0-5.88,4.79-10.67,10.67-10.67h40.06c6.98,0,12.67-5.68,12.67-12.67v-7.84c0-6.98-5.68-12.67-12.67-12.67h0Z"/>
      </g>
    </g>
    <g>
      <rect class="cls-2" x="343.91" y="103.8" width="52.36" height="40.54"/>
      <path d="M7.28,15.49v14.75c0,4.53,3.68,8.21,8.21,8.21h43.51c6.44,0,11.67,5.22,11.67,11.67v129.72c0,6.44,5.22,11.67,11.67,11.67h13.09c6.44,0,11.67-5.22,11.67-11.67V50.12c0-6.44,5.22-11.67,11.67-11.67h40.06c6.44,0,11.67-5.22,11.67-11.67v-7.84c0-6.44-5.22-11.67-11.67-11.67H15.49c-4.53,0-8.21,3.68-8.21,8.21Z"/>
      <path d="M223.41,54.68h-1.42c-19.33,0-35,15.67-35,35v90.15c0,6.44,5.22,11.67,11.67,11.67h13.09c6.44,0,11.67-5.22,11.67-11.67v-77.06c0-6.44,5.22-11.67,11.67-11.67h34.34c6.44,0,11.67-5.22,11.67-11.67v-13.09c0-6.44-5.22-11.67-11.67-11.67h-46Z"/>
      <path d="M334.01,143.41v-40.64c0-6.44,5.22-11.67,11.67-11.67h51.03c6.44,0,11.67,5.22,11.67,11.67v40.64c0,6.44-5.22,11.67-11.67,11.67h-51.03c-6.44,0-11.67-5.22-11.67-11.67ZM297.58,89.68v66.82c0,19.33,15.67,35,35,35h77.21c19.33,0,35-15.67,35-35v-66.82c0-19.33-15.67-35-35-35h-77.21c-19.33,0-35,15.67-35,35Z"/>
      <rect x="461.3" y="7.28" width="36.42" height="184.22" rx="5" ry="5"/>
      <rect x="514.22" y="7.28" width="36.42" height="184.22" rx="5" ry="5"/>
      <rect class="cls-1" x="583.64" y="104.88" width="92.11" height="36.42" rx="5" ry="5"/>
      <rect class="cls-4" x="708.76" y="7.28" width="36.42" height="184.22" rx="5" ry="5"/>
      <path class="cls-4" d="M769.93,18.95v7.84c0,6.44,5.22,11.67,11.67,11.67h40.06c6.44,0,11.67,5.22,11.67,11.67v129.72c0,6.44,5.22,11.67,11.67,11.67h13.09c6.44,0,11.67-5.22,11.67-11.67V50.12c0-6.44,5.22-11.67,11.67-11.67h40.06c6.44,0,11.67-5.22,11.67-11.67v-7.84c0-6.44-5.22-11.67-11.67-11.67h-139.87c-6.44,0-11.67,5.22-11.67,11.67Z"/>
    </g>
  </g>
</svg>