<?xml version="1.0" encoding="UTF-8"?>
<svg id="Mascot" xmlns="http://www.w3.org/2000/svg" viewBox="0 0 481.25 515.2">
  <defs>
    <style>
      .cls-1 {
        stroke-linecap: round;
        stroke-linejoin: round;
        stroke-width: 10px;
      }

      .cls-1, .cls-2 {
        fill: none;
        stroke: #fff;
      }

      .cls-3 {
        fill: #005300;
      }

      .cls-4 {
        fill: #fff;
      }

      .cls-5 {
        fill: #77b903;
      }
    </style>
  </defs>
  <g id="Full_Logo" data-name="Full Logo">
    <g>
      <g id="Text">
        <g>
          <rect class="cls-1" x="186.64" y="470.14" width="22.44" height="17.37"/>
          <g>
            <path class="cls-1" d="M42.24,433.1v6.32c0,1.94,1.58,3.52,3.52,3.52h18.65c2.76,0,5,2.24,5,5v55.59c0,2.76,2.24,5,5,5h5.61c2.76,0,5-2.24,5-5v-55.59c0-2.76,2.24-5,5-5h17.17c2.76,0,5-2.24,5-5v-3.36c0-2.76-2.24-5-5-5h-61.42c-1.94,0-3.52,1.58-3.52,3.52Z"/>
            <path class="cls-1" d="M107.18,429.58c2.76,0,5,2.24,5,5v3.36c0,2.76-2.24,5-5,5h-17.17c-2.76,0-5,2.24-5,5v55.59c0,2.76-2.24,5-5,5h-5.61c-2.76,0-5-2.24-5-5v-55.59c0-2.76-2.24-5-5-5h-18.65c-1.94,0-3.52-1.58-3.52-3.52v-6.32c0-1.94,1.58-3.52,3.52-3.52h61.42M107.18,428.58h-61.42c-2.49,0-4.52,2.03-4.52,4.52v6.32c0,2.49,2.03,4.52,4.52,4.52h18.65c2.21,0,4,1.79,4,4v55.59c0,3.31,2.69,6,6,6h5.61c3.31,0,6-2.69,6-6v-55.59c0-2.21,1.79-4,4-4h17.17c3.31,0,6-2.69,6-6v-3.36c0-3.31-2.69-6-6-6h0Z"/>
          </g>
          <g>
            <path class="cls-1" d="M134.86,449.89h-.61c-8.28,0-15,6.72-15,15v38.63c0,2.76,2.24,5,5,5h5.61c2.76,0,5-2.24,5-5v-33.02c0-2.76,2.24-5,5-5h14.71c2.76,0,5-2.24,5-5v-5.61c0-2.76-2.24-5-5-5h-19.71Z"/>
            <path class="cls-1" d="M154.58,449.89c2.76,0,5,2.24,5,5v5.61c0,2.76-2.24,5-5,5h-14.71c-2.76,0-5,2.24-5,5v33.02c0,2.76-2.24,5-5,5h-5.61c-2.76,0-5-2.24-5-5v-38.63c0-8.28,6.72-15,15-15h20.32M154.58,448.89h-20.32c-8.82,0-16,7.18-16,16v38.63c0,3.31,2.69,6,6,6h5.61c3.31,0,6-2.69,6-6v-33.02c0-2.21,1.79-4,4-4h14.71c3.31,0,6-2.69,6-6v-5.61c0-3.31-2.69-6-6-6h0Z"/>
          </g>
          <g>
            <path class="cls-1" d="M182.26,487.92v-17.42c0-2.76,2.24-5,5-5h21.87c2.76,0,5,2.24,5,5v17.42c0,2.76-2.24,5-5,5h-21.87c-2.76,0-5-2.24-5-5ZM166.65,464.89v28.63c0,8.28,6.72,15,15,15h33.09c8.28,0,15-6.72,15-15v-28.63c0-8.28-6.72-15-15-15h-33.09c-8.28,0-15,6.72-15,15Z"/>
            <path class="cls-1" d="M214.73,449.89c8.28,0,15,6.72,15,15v28.63c0,8.28-6.72,15-15,15h-33.09c-8.28,0-15-6.72-15-15v-28.63c0-8.28,6.72-15,15-15h33.09M187.26,492.92h21.87c2.76,0,5-2.24,5-5v-17.42c0-2.76-2.24-5-5-5h-21.87c-2.76,0-5,2.24-5,5v17.42c0,2.76,2.24,5,5,5M214.73,448.89h-33.09c-8.82,0-16,7.18-16,16v28.63c0,8.82,7.18,16,16,16h33.09c8.82,0,16-7.18,16-16v-28.63c0-8.82-7.18-16-16-16h0ZM187.26,491.92c-2.21,0-4-1.79-4-4v-17.42c0-2.21,1.79-4,4-4h21.87c2.21,0,4,1.79,4,4v17.42c0,2.21-1.79,4-4,4h-21.87Z"/>
          </g>
          <g>
            <rect class="cls-1" x="236.8" y="429.58" width="15.61" height="78.95" rx="5" ry="5"/>
            <path class="cls-1" d="M247.41,429.58c2.76,0,5,2.24,5,5v68.95c0,2.76-2.24,5-5,5h-5.61c-2.76,0-5-2.24-5-5v-68.95c0-2.76,2.24-5,5-5h5.61M247.41,428.58h-5.61c-3.31,0-6,2.69-6,6v68.95c0,3.31,2.69,6,6,6h5.61c3.31,0,6-2.69,6-6v-68.95c0-3.31-2.69-6-6-6h0Z"/>
          </g>
          <g>
            <rect class="cls-1" x="259.48" y="429.58" width="15.61" height="78.95" rx="5" ry="5"/>
            <path class="cls-1" d="M270.09,429.58c2.76,0,5,2.24,5,5v68.95c0,2.76-2.24,5-5,5h-5.61c-2.76,0-5-2.24-5-5v-68.95c0-2.76,2.24-5,5-5h5.61M270.09,428.58h-5.61c-3.31,0-6,2.69-6,6v68.95c0,3.31,2.69,6,6,6h5.61c3.31,0,6-2.69,6-6v-68.95c0-3.31-2.69-6-6-6h0Z"/>
          </g>
          <g>
            <rect class="cls-1" x="289.23" y="471.41" width="39.47" height="15.61" rx="5" ry="5"/>
            <path class="cls-1" d="M323.71,471.41c2.76,0,5,2.24,5,5v5.61c0,2.76-2.24,5-5,5h-29.47c-2.76,0-5-2.24-5-5v-5.61c0-2.76,2.24-5,5-5h29.47M323.71,470.41h-29.47c-3.31,0-6,2.69-6,6v5.61c0,3.31,2.69,6,6,6h29.47c3.31,0,6-2.69,6-6v-5.61c0-3.31-2.69-6-6-6h0Z"/>
          </g>
          <g>
            <rect class="cls-1" x="342.85" y="429.58" width="15.61" height="78.95" rx="5" ry="5"/>
            <path class="cls-1" d="M353.46,429.58c2.76,0,5,2.24,5,5v68.95c0,2.76-2.24,5-5,5h-5.61c-2.76,0-5-2.24-5-5v-68.95c0-2.76,2.24-5,5-5h5.61M353.46,428.58h-5.61c-3.31,0-6,2.69-6,6v68.95c0,3.31,2.69,6,6,6h5.61c3.31,0,6-2.69,6-6v-68.95c0-3.31-2.69-6-6-6h0Z"/>
          </g>
          <g>
            <path class="cls-1" d="M369.06,434.58v3.36c0,2.76,2.24,5,5,5h17.17c2.76,0,5,2.24,5,5v55.59c0,2.76,2.24,5,5,5h5.61c2.76,0,5-2.24,5-5v-55.59c0-2.76,2.24-5,5-5h17.17c2.76,0,5-2.24,5-5v-3.36c0-2.76-2.24-5-5-5h-59.94c-2.76,0-5,2.24-5,5Z"/>
            <path class="cls-1" d="M434,429.58c2.76,0,5,2.24,5,5v3.36c0,2.76-2.24,5-5,5h-17.17c-2.76,0-5,2.24-5,5v55.59c0,2.76-2.24,5-5,5h-5.61c-2.76,0-5-2.24-5-5v-55.59c0-2.76-2.24-5-5-5h-17.17c-2.76,0-5-2.24-5-5v-3.36c0-2.76,2.24-5,5-5h59.94M434,428.58h-59.94c-3.31,0-6,2.69-6,6v3.36c0,3.31,2.69,6,6,6h17.17c2.21,0,4,1.79,4,4v55.59c0,3.31,2.69,6,6,6h5.61c3.31,0,6-2.69,6-6v-55.59c0-2.21,1.79-4,4-4h17.17c3.31,0,6-2.69,6-6v-3.36c0-3.31-2.69-6-6-6h0Z"/>
          </g>
        </g>
        <g>
          <rect class="cls-1" x="186.64" y="470.14" width="22.44" height="17.37"/>
          <g>
            <path class="cls-1" d="M42.24,433.1v6.32c0,1.94,1.58,3.52,3.52,3.52h18.65c2.76,0,5,2.24,5,5v55.59c0,2.76,2.24,5,5,5h5.61c2.76,0,5-2.24,5-5v-55.59c0-2.76,2.24-5,5-5h17.17c2.76,0,5-2.24,5-5v-3.36c0-2.76-2.24-5-5-5h-61.42c-1.94,0-3.52,1.58-3.52,3.52Z"/>
            <path class="cls-1" d="M107.18,429.58c2.76,0,5,2.24,5,5v3.36c0,2.76-2.24,5-5,5h-17.17c-2.76,0-5,2.24-5,5v55.59c0,2.76-2.24,5-5,5h-5.61c-2.76,0-5-2.24-5-5v-55.59c0-2.76-2.24-5-5-5h-18.65c-1.94,0-3.52-1.58-3.52-3.52v-6.32c0-1.94,1.58-3.52,3.52-3.52h61.42M107.18,428.58h-61.42c-2.49,0-4.52,2.03-4.52,4.52v6.32c0,2.49,2.03,4.52,4.52,4.52h18.65c2.21,0,4,1.79,4,4v55.59c0,3.31,2.69,6,6,6h5.61c3.31,0,6-2.69,6-6v-55.59c0-2.21,1.79-4,4-4h17.17c3.31,0,6-2.69,6-6v-3.36c0-3.31-2.69-6-6-6h0Z"/>
          </g>
          <g>
            <path class="cls-1" d="M134.86,449.89h-.61c-8.28,0-15,6.72-15,15v38.63c0,2.76,2.24,5,5,5h5.61c2.76,0,5-2.24,5-5v-33.02c0-2.76,2.24-5,5-5h14.71c2.76,0,5-2.24,5-5v-5.61c0-2.76-2.24-5-5-5h-19.71Z"/>
            <path class="cls-1" d="M154.58,449.89c2.76,0,5,2.24,5,5v5.61c0,2.76-2.24,5-5,5h-14.71c-2.76,0-5,2.24-5,5v33.02c0,2.76-2.24,5-5,5h-5.61c-2.76,0-5-2.24-5-5v-38.63c0-8.28,6.72-15,15-15h20.32M154.58,448.89h-20.32c-8.82,0-16,7.18-16,16v38.63c0,3.31,2.69,6,6,6h5.61c3.31,0,6-2.69,6-6v-33.02c0-2.21,1.79-4,4-4h14.71c3.31,0,6-2.69,6-6v-5.61c0-3.31-2.69-6-6-6h0Z"/>
          </g>
          <g>
            <path class="cls-1" d="M182.26,487.92v-17.42c0-2.76,2.24-5,5-5h21.87c2.76,0,5,2.24,5,5v17.42c0,2.76-2.24,5-5,5h-21.87c-2.76,0-5-2.24-5-5ZM166.65,464.89v28.63c0,8.28,6.72,15,15,15h33.09c8.28,0,15-6.72,15-15v-28.63c0-8.28-6.72-15-15-15h-33.09c-8.28,0-15,6.72-15,15Z"/>
            <path class="cls-1" d="M214.73,449.89c8.28,0,15,6.72,15,15v28.63c0,8.28-6.72,15-15,15h-33.09c-8.28,0-15-6.72-15-15v-28.63c0-8.28,6.72-15,15-15h33.09M187.26,492.92h21.87c2.76,0,5-2.24,5-5v-17.42c0-2.76-2.24-5-5-5h-21.87c-2.76,0-5,2.24-5,5v17.42c0,2.76,2.24,5,5,5M214.73,448.89h-33.09c-8.82,0-16,7.18-16,16v28.63c0,8.82,7.18,16,16,16h33.09c8.82,0,16-7.18,16-16v-28.63c0-8.82-7.18-16-16-16h0ZM187.26,491.92c-2.21,0-4-1.79-4-4v-17.42c0-2.21,1.79-4,4-4h21.87c2.21,0,4,1.79,4,4v17.42c0,2.21-1.79,4-4,4h-21.87Z"/>
          </g>
          <g>
            <rect class="cls-1" x="236.8" y="429.58" width="15.61" height="78.95" rx="5" ry="5"/>
            <path class="cls-1" d="M247.41,429.58c2.76,0,5,2.24,5,5v68.95c0,2.76-2.24,5-5,5h-5.61c-2.76,0-5-2.24-5-5v-68.95c0-2.76,2.24-5,5-5h5.61M247.41,428.58h-5.61c-3.31,0-6,2.69-6,6v68.95c0,3.31,2.69,6,6,6h5.61c3.31,0,6-2.69,6-6v-68.95c0-3.31-2.69-6-6-6h0Z"/>
          </g>
          <g>
            <rect class="cls-1" x="259.48" y="429.58" width="15.61" height="78.95" rx="5" ry="5"/>
            <path class="cls-1" d="M270.09,429.58c2.76,0,5,2.24,5,5v68.95c0,2.76-2.24,5-5,5h-5.61c-2.76,0-5-2.24-5-5v-68.95c0-2.76,2.24-5,5-5h5.61M270.09,428.58h-5.61c-3.31,0-6,2.69-6,6v68.95c0,3.31,2.69,6,6,6h5.61c3.31,0,6-2.69,6-6v-68.95c0-3.31-2.69-6-6-6h0Z"/>
          </g>
          <g>
            <rect class="cls-1" x="289.23" y="471.41" width="39.47" height="15.61" rx="5" ry="5"/>
            <path class="cls-1" d="M323.71,471.41c2.76,0,5,2.24,5,5v5.61c0,2.76-2.24,5-5,5h-29.47c-2.76,0-5-2.24-5-5v-5.61c0-2.76,2.24-5,5-5h29.47M323.71,470.41h-29.47c-3.31,0-6,2.69-6,6v5.61c0,3.31,2.69,6,6,6h29.47c3.31,0,6-2.69,6-6v-5.61c0-3.31-2.69-6-6-6h0Z"/>
          </g>
          <g>
            <rect class="cls-1" x="342.85" y="429.58" width="15.61" height="78.95" rx="5" ry="5"/>
            <path class="cls-1" d="M353.46,429.58c2.76,0,5,2.24,5,5v68.95c0,2.76-2.24,5-5,5h-5.61c-2.76,0-5-2.24-5-5v-68.95c0-2.76,2.24-5,5-5h5.61M353.46,428.58h-5.61c-3.31,0-6,2.69-6,6v68.95c0,3.31,2.69,6,6,6h5.61c3.31,0,6-2.69,6-6v-68.95c0-3.31-2.69-6-6-6h0Z"/>
          </g>
          <g>
            <path class="cls-1" d="M369.06,434.58v3.36c0,2.76,2.24,5,5,5h17.17c2.76,0,5,2.24,5,5v55.59c0,2.76,2.24,5,5,5h5.61c2.76,0,5-2.24,5-5v-55.59c0-2.76,2.24-5,5-5h17.17c2.76,0,5-2.24,5-5v-3.36c0-2.76-2.24-5-5-5h-59.94c-2.76,0-5,2.24-5,5Z"/>
            <path class="cls-1" d="M434,429.58c2.76,0,5,2.24,5,5v3.36c0,2.76-2.24,5-5,5h-17.17c-2.76,0-5,2.24-5,5v55.59c0,2.76-2.24,5-5,5h-5.61c-2.76,0-5-2.24-5-5v-55.59c0-2.76-2.24-5-5-5h-17.17c-2.76,0-5-2.24-5-5v-3.36c0-2.76,2.24-5,5-5h59.94M434,428.58h-59.94c-3.31,0-6,2.69-6,6v3.36c0,3.31,2.69,6,6,6h17.17c2.21,0,4,1.79,4,4v55.59c0,3.31,2.69,6,6,6h5.61c3.31,0,6-2.69,6-6v-55.59c0-2.21,1.79-4,4-4h17.17c3.31,0,6-2.69,6-6v-3.36c0-3.31-2.69-6-6-6h0Z"/>
          </g>
        </g>
        <g>
          <rect class="cls-1" x="186.64" y="470.14" width="22.44" height="17.37"/>
          <g>
            <path class="cls-1" d="M42.24,433.1v6.32c0,1.94,1.58,3.52,3.52,3.52h18.65c2.76,0,5,2.24,5,5v55.59c0,2.76,2.24,5,5,5h5.61c2.76,0,5-2.24,5-5v-55.59c0-2.76,2.24-5,5-5h17.17c2.76,0,5-2.24,5-5v-3.36c0-2.76-2.24-5-5-5h-61.42c-1.94,0-3.52,1.58-3.52,3.52Z"/>
            <path class="cls-1" d="M107.18,429.58c2.76,0,5,2.24,5,5v3.36c0,2.76-2.24,5-5,5h-17.17c-2.76,0-5,2.24-5,5v55.59c0,2.76-2.24,5-5,5h-5.61c-2.76,0-5-2.24-5-5v-55.59c0-2.76-2.24-5-5-5h-18.65c-1.94,0-3.52-1.58-3.52-3.52v-6.32c0-1.94,1.58-3.52,3.52-3.52h61.42M107.18,428.58h-61.42c-2.49,0-4.52,2.03-4.52,4.52v6.32c0,2.49,2.03,4.52,4.52,4.52h18.65c2.21,0,4,1.79,4,4v55.59c0,3.31,2.69,6,6,6h5.61c3.31,0,6-2.69,6-6v-55.59c0-2.21,1.79-4,4-4h17.17c3.31,0,6-2.69,6-6v-3.36c0-3.31-2.69-6-6-6h0Z"/>
          </g>
          <g>
            <path class="cls-1" d="M134.86,449.89h-.61c-8.28,0-15,6.72-15,15v38.63c0,2.76,2.24,5,5,5h5.61c2.76,0,5-2.24,5-5v-33.02c0-2.76,2.24-5,5-5h14.71c2.76,0,5-2.24,5-5v-5.61c0-2.76-2.24-5-5-5h-19.71Z"/>
            <path class="cls-1" d="M154.58,449.89c2.76,0,5,2.24,5,5v5.61c0,2.76-2.24,5-5,5h-14.71c-2.76,0-5,2.24-5,5v33.02c0,2.76-2.24,5-5,5h-5.61c-2.76,0-5-2.24-5-5v-38.63c0-8.28,6.72-15,15-15h20.32M154.58,448.89h-20.32c-8.82,0-16,7.18-16,16v38.63c0,3.31,2.69,6,6,6h5.61c3.31,0,6-2.69,6-6v-33.02c0-2.21,1.79-4,4-4h14.71c3.31,0,6-2.69,6-6v-5.61c0-3.31-2.69-6-6-6h0Z"/>
          </g>
          <g>
            <path class="cls-1" d="M182.26,487.92v-17.42c0-2.76,2.24-5,5-5h21.87c2.76,0,5,2.24,5,5v17.42c0,2.76-2.24,5-5,5h-21.87c-2.76,0-5-2.24-5-5ZM166.65,464.89v28.63c0,8.28,6.72,15,15,15h33.09c8.28,0,15-6.72,15-15v-28.63c0-8.28-6.72-15-15-15h-33.09c-8.28,0-15,6.72-15,15Z"/>
            <path class="cls-1" d="M214.73,449.89c8.28,0,15,6.72,15,15v28.63c0,8.28-6.72,15-15,15h-33.09c-8.28,0-15-6.72-15-15v-28.63c0-8.28,6.72-15,15-15h33.09M187.26,492.92h21.87c2.76,0,5-2.24,5-5v-17.42c0-2.76-2.24-5-5-5h-21.87c-2.76,0-5,2.24-5,5v17.42c0,2.76,2.24,5,5,5M214.73,448.89h-33.09c-8.82,0-16,7.18-16,16v28.63c0,8.82,7.18,16,16,16h33.09c8.82,0,16-7.18,16-16v-28.63c0-8.82-7.18-16-16-16h0ZM187.26,491.92c-2.21,0-4-1.79-4-4v-17.42c0-2.21,1.79-4,4-4h21.87c2.21,0,4,1.79,4,4v17.42c0,2.21-1.79,4-4,4h-21.87Z"/>
          </g>
          <g>
            <rect class="cls-1" x="236.8" y="429.58" width="15.61" height="78.95" rx="5" ry="5"/>
            <path class="cls-1" d="M247.41,429.58c2.76,0,5,2.24,5,5v68.95c0,2.76-2.24,5-5,5h-5.61c-2.76,0-5-2.24-5-5v-68.95c0-2.76,2.24-5,5-5h5.61M247.41,428.58h-5.61c-3.31,0-6,2.69-6,6v68.95c0,3.31,2.69,6,6,6h5.61c3.31,0,6-2.69,6-6v-68.95c0-3.31-2.69-6-6-6h0Z"/>
          </g>
          <g>
            <rect class="cls-1" x="259.48" y="429.58" width="15.61" height="78.95" rx="5" ry="5"/>
            <path class="cls-1" d="M270.09,429.58c2.76,0,5,2.24,5,5v68.95c0,2.76-2.24,5-5,5h-5.61c-2.76,0-5-2.24-5-5v-68.95c0-2.76,2.24-5,5-5h5.61M270.09,428.58h-5.61c-3.31,0-6,2.69-6,6v68.95c0,3.31,2.69,6,6,6h5.61c3.31,0,6-2.69,6-6v-68.95c0-3.31-2.69-6-6-6h0Z"/>
          </g>
          <g>
            <rect class="cls-1" x="289.23" y="471.41" width="39.47" height="15.61" rx="5" ry="5"/>
            <path class="cls-1" d="M323.71,471.41c2.76,0,5,2.24,5,5v5.61c0,2.76-2.24,5-5,5h-29.47c-2.76,0-5-2.24-5-5v-5.61c0-2.76,2.24-5,5-5h29.47M323.71,470.41h-29.47c-3.31,0-6,2.69-6,6v5.61c0,3.31,2.69,6,6,6h29.47c3.31,0,6-2.69,6-6v-5.61c0-3.31-2.69-6-6-6h0Z"/>
          </g>
          <g>
            <rect class="cls-1" x="342.85" y="429.58" width="15.61" height="78.95" rx="5" ry="5"/>
            <path class="cls-1" d="M353.46,429.58c2.76,0,5,2.24,5,5v68.95c0,2.76-2.24,5-5,5h-5.61c-2.76,0-5-2.24-5-5v-68.95c0-2.76,2.24-5,5-5h5.61M353.46,428.58h-5.61c-3.31,0-6,2.69-6,6v68.95c0,3.31,2.69,6,6,6h5.61c3.31,0,6-2.69,6-6v-68.95c0-3.31-2.69-6-6-6h0Z"/>
          </g>
          <g>
            <path class="cls-1" d="M369.06,434.58v3.36c0,2.76,2.24,5,5,5h17.17c2.76,0,5,2.24,5,5v55.59c0,2.76,2.24,5,5,5h5.61c2.76,0,5-2.24,5-5v-55.59c0-2.76,2.24-5,5-5h17.17c2.76,0,5-2.24,5-5v-3.36c0-2.76-2.24-5-5-5h-59.94c-2.76,0-5,2.24-5,5Z"/>
            <path class="cls-1" d="M434,429.58c2.76,0,5,2.24,5,5v3.36c0,2.76-2.24,5-5,5h-17.17c-2.76,0-5,2.24-5,5v55.59c0,2.76-2.24,5-5,5h-5.61c-2.76,0-5-2.24-5-5v-55.59c0-2.76-2.24-5-5-5h-17.17c-2.76,0-5-2.24-5-5v-3.36c0-2.76,2.24-5,5-5h59.94M434,428.58h-59.94c-3.31,0-6,2.69-6,6v3.36c0,3.31,2.69,6,6,6h17.17c2.21,0,4,1.79,4,4v55.59c0,3.31,2.69,6,6,6h5.61c3.31,0,6-2.69,6-6v-55.59c0-2.21,1.79-4,4-4h17.17c3.31,0,6-2.69,6-6v-3.36c0-3.31-2.69-6-6-6h0Z"/>
          </g>
        </g>
      </g>
      <g id="Mascot-2" data-name="Mascot">
        <g id="Fixes">
          <ellipse class="cls-1" cx="400.77" cy="85.44" rx="9.66" ry="10.27"/>
          <circle class="cls-1" cx="449.32" cy="158.56" r="7.93"/>
          <ellipse class="cls-1" cx="432.66" cy="268.29" rx="8.43" ry="9.27"/>
          <circle class="cls-1" cx="377.55" cy="336.7" r="8.46"/>
          <ellipse class="cls-1" cx="299.21" cy="365.16" rx="8.55" ry="7.8"/>
          <path class="cls-1" d="M124.46,179.35s-.9-6.98-5.48-10.92c-4.58-3.94-14.82-6.15-20.56-2.29s-9.91,6.42-9.94,12.12,2.4,11.97,2.4,11.97l4.2-2.18s-1.31-4.43,2.4-10.09c3.71-5.67,12.94-5.44,13.7-5.1.75.34,8.82,8.07,8.82,8.07l4.47-1.58Z"/>
          <path class="cls-1" d="M290.85,109.54l-34.07,12.68-37.62,28.66-9.84,26.3,24.99-27.16s29-21.35,29.52-21.72c.53-.38,14.03-3.23,14.03-3.23l1.58,7.65s-8.71,34.07-8.9,34.48c-21.06,47.38-13.58,50.94,10.02,3.06,0,0,9.76-50,9.98-49.92s.3-10.43.3-10.43"/>
          <path class="cls-1" d="M126.38,220.13s1.02,10.42,1.47,10.53,13.7-1.25,13.7-1.25l-9.17-10.75-6,1.47Z"/>
        </g>
        <g id="Traces">
          <g>
            <path class="cls-1" d="M401.24,61.89c-13.06,0-23.64,10.58-23.64,23.64s10.58,23.64,23.64,23.64,23.64-10.58,23.64-23.64-10.58-23.64-23.64-23.64ZM401.24,98.67c-7.25,0-13.13-5.88-13.13-13.13s5.88-13.13,13.13-13.13,13.13,5.88,13.13,13.13-5.88,13.13-13.13,13.13Z"/>
            <path class="cls-1" d="M401.24,61.89c13.06,0,23.64,10.58,23.64,23.64s-10.58,23.64-23.64,23.64-23.64-10.58-23.64-23.64,10.58-23.64,23.64-23.64M401.24,98.67c7.25,0,13.13-5.88,13.13-13.13s-5.88-13.13-13.13-13.13-13.13,5.88-13.13,13.13,5.88,13.13,13.13,13.13M401.24,60.89c-13.59,0-24.64,11.05-24.64,24.64s11.05,24.64,24.64,24.64,24.64-11.05,24.64-24.64-11.05-24.64-24.64-24.64h0ZM401.24,97.67c-6.69,0-12.13-5.44-12.13-12.13s5.44-12.13,12.13-12.13,12.13,5.44,12.13,12.13-5.44,12.13-12.13,12.13h0Z"/>
          </g>
          <g>
            <path class="cls-1" d="M450.07,134.49c-13.06,0-23.64,10.58-23.64,23.64s10.58,23.64,23.64,23.64,23.64-10.58,23.64-23.64-10.58-23.64-23.64-23.64ZM450.07,171.26c-7.25,0-13.13-5.88-13.13-13.13s5.88-13.13,13.13-13.13,13.13,5.88,13.13,13.13-5.88,13.13-13.13,13.13Z"/>
            <path class="cls-1" d="M450.07,134.49c13.06,0,23.64,10.58,23.64,23.64s-10.58,23.64-23.64,23.64-23.64-10.58-23.64-23.64,10.58-23.64,23.64-23.64M450.07,171.26c7.25,0,13.13-5.88,13.13-13.13s-5.88-13.13-13.13-13.13-13.13,5.88-13.13,13.13,5.88,13.13,13.13,13.13M450.07,133.49c-13.59,0-24.64,11.05-24.64,24.64s11.05,24.64,24.64,24.64,24.64-11.05,24.64-24.64-11.05-24.64-24.64-24.64h0ZM450.07,170.26c-6.69,0-12.13-5.44-12.13-12.13s5.44-12.13,12.13-12.13,12.13,5.44,12.13,12.13-5.44,12.13-12.13,12.13h0Z"/>
          </g>
          <g>
            <path class="cls-1" d="M432.66,244.65c-13.06,0-23.64,10.58-23.64,23.64s10.58,23.64,23.64,23.64,23.64-10.58,23.64-23.64-10.58-23.64-23.64-23.64ZM432.66,281.42c-7.25,0-13.13-5.88-13.13-13.13s5.88-13.13,13.13-13.13,13.13,5.88,13.13,13.13-5.88,13.13-13.13,13.13Z"/>
            <path class="cls-1" d="M432.66,244.65c13.06,0,23.64,10.58,23.64,23.64s-10.58,23.64-23.64,23.64-23.64-10.58-23.64-23.64,10.58-23.64,23.64-23.64M432.66,281.42c7.25,0,13.13-5.88,13.13-13.13s-5.88-13.13-13.13-13.13-13.13,5.88-13.13,13.13,5.88,13.13,13.13,13.13M432.66,243.65c-13.59,0-24.64,11.05-24.64,24.64s11.05,24.64,24.64,24.64,24.64-11.05,24.64-24.64-11.05-24.64-24.64-24.64h0ZM432.66,280.42c-6.69,0-12.13-5.44-12.13-12.13s5.44-12.13,12.13-12.13,12.13,5.44,12.13,12.13-5.44,12.13-12.13,12.13h0Z"/>
          </g>
          <g>
            <path class="cls-1" d="M378.63,312.49c-13.06,0-23.64,10.58-23.64,23.64s10.58,23.64,23.64,23.64,23.64-10.58,23.64-23.64-10.58-23.64-23.64-23.64ZM378.63,349.26c-7.25,0-13.13-5.88-13.13-13.13s5.88-13.13,13.13-13.13,13.13,5.88,13.13,13.13-5.88,13.13-13.13,13.13Z"/>
            <path class="cls-1" d="M378.63,312.49c13.06,0,23.64,10.58,23.64,23.64s-10.58,23.64-23.64,23.64-23.64-10.58-23.64-23.64,10.58-23.64,23.64-23.64M378.63,349.26c7.25,0,13.13-5.88,13.13-13.13s-5.88-13.13-13.13-13.13-13.13,5.88-13.13,13.13,5.88,13.13,13.13,13.13M378.63,311.49c-13.59,0-24.64,11.05-24.64,24.64s11.05,24.64,24.64,24.64,24.64-11.05,24.64-24.64-11.05-24.64-24.64-24.64h0ZM378.63,348.26c-6.69,0-12.13-5.44-12.13-12.13s5.44-12.13,12.13-12.13,12.13,5.44,12.13,12.13-5.44,12.13-12.13,12.13h0Z"/>
          </g>
          <g>
            <path class="cls-1" d="M299.38,341.31c-13.06,0-23.64,10.58-23.64,23.64s10.58,23.64,23.64,23.64,23.64-10.58,23.64-23.64-10.58-23.64-23.64-23.64ZM299.38,378.08c-7.25,0-13.13-5.88-13.13-13.13s5.88-13.13,13.13-13.13,13.13,5.88,13.13,13.13-5.88,13.13-13.13,13.13Z"/>
            <path class="cls-1" d="M299.38,341.31c13.06,0,23.64,10.58,23.64,23.64s-10.58,23.64-23.64,23.64-23.64-10.58-23.64-23.64,10.58-23.64,23.64-23.64M299.38,378.08c7.25,0,13.13-5.88,13.13-13.13s-5.88-13.13-13.13-13.13-13.13,5.88-13.13,13.13,5.88,13.13,13.13,13.13M299.38,340.31c-13.59,0-24.64,11.05-24.64,24.64s11.05,24.64,24.64,24.64,24.64-11.05,24.64-24.64-11.05-24.64-24.64-24.64h0ZM299.38,377.08c-6.69,0-12.13-5.44-12.13-12.13s5.44-12.13,12.13-12.13,12.13,5.44,12.13,12.13-5.44,12.13-12.13,12.13h0Z"/>
          </g>
          <g>
            <polygon class="cls-1" points="409.66 262.83 387.57 262.83 361 236.25 307.22 236.25 276.28 267.19 293.79 267.19 312.7 248.28 357.44 248.28 383.22 274.06 409.66 274.06 409.66 262.83"/>
            <path class="cls-1" d="M361,236.25l26.57,26.57h22.09v11.23h-26.43l-25.78-25.78h-44.74l-18.91,18.91h-17.5l30.94-30.94h53.77M361.41,235.25h-54.6l-.29.29-30.94,30.94-1.71,1.71h20.33l.29-.29,18.62-18.62h43.91l25.49,25.49.29.29h27.85v-13.23h-22.67l-26.28-26.28-.29-.29h0Z"/>
          </g>
          <g>
            <polygon class="cls-1" points="265.35 325.63 227.91 325.63 216.71 336.83 261.13 336.83 279.84 354.23 287.17 345.91 265.35 325.63"/>
            <path class="cls-1" d="M265.35,325.63l21.82,20.28-7.32,8.32-18.72-17.4h-44.41l11.2-11.2h37.44M265.74,324.63h-38.25l-.29.29-11.2,11.2-1.71,1.71h46.43l18.43,17.13.75.7.68-.77,7.32-8.32.64-.73-.71-.66-21.82-20.28-.29-.27h0Z"/>
          </g>
          <g>
            <polygon class="cls-1" points="193.67 325.63 193.67 325.91 202.49 336.83 216.71 336.83 227.91 325.63 193.67 325.63"/>
            <path class="cls-1" d="M227.91,325.63l-11.2,11.2h-14.23l-8.82-10.92v-.28h34.24M230.32,324.63h-37.66v1.63l.22.27,8.82,10.92.3.37h15.12l.29-.29,11.2-11.2,1.71-1.71h0Z"/>
          </g>
          <g>
            <polygon class="cls-1" points="397.08 153.55 360.45 190.17 320.01 190.17 308.07 202.12 365.86 202.12 402.8 165.17 427.7 165.17 427.7 153.55 397.08 153.55"/>
            <path class="cls-1" d="M427.7,153.55v11.63h-24.9l-36.94,36.94h-57.79l11.95-11.95h40.44l36.62-36.62h30.63M428.7,152.55h-32.04l-.29.29-36.33,36.33h-40.44l-.29.29-11.95,11.95-1.71,1.71h60.62l.29-.29,36.65-36.65h25.49v-13.63h0Z"/>
          </g>
          <g>
            <polygon class="cls-1" points="291.85 190.17 287.18 202.12 308.07 202.12 320.01 190.17 291.85 190.17"/>
            <path class="cls-1" d="M320.01,190.17l-11.95,11.95h-20.89l4.67-11.95h28.17M322.43,189.17h-31.27l-.25.64-4.67,11.95-.53,1.36h22.77l.29-.29,11.95-11.95,1.71-1.71h0Z"/>
          </g>
          <g>
            <polygon class="cls-1" points="330.19 283.43 263.59 283.43 251.42 295.61 327.41 295.61 357.44 325.64 364.09 317.34 330.19 283.43"/>
            <path class="cls-1" d="M330.19,283.43l33.91,33.91-6.65,8.3-30.03-30.03h-75.99l12.18-12.18h66.59M330.6,282.43h-67.42l-.29.29-12.18,12.18-1.71,1.71h77.99l29.74,29.74.79.79.7-.87,6.65-8.3.56-.7-.63-.63-33.91-33.91-.29-.29h0Z"/>
          </g>
          <g>
            <polygon class="cls-1" points="226.47 283.43 217.89 295.61 251.42 295.61 263.59 283.43 226.47 283.43"/>
            <path class="cls-1" d="M263.59,283.43l-12.18,12.18h-33.53l8.58-12.18h37.13M266.01,282.43h-40.06l-.3.42-8.58,12.18-1.11,1.58h35.87l.29-.29,12.18-12.18,1.71-1.71h0Z"/>
          </g>
          <g>
            <polygon class="cls-1" points="305.83 143.44 303.36 155.29 313.06 155.29 324.91 143.44 305.83 143.44"/>
            <path class="cls-1" d="M324.91,143.44l-11.85,11.85h-9.7l2.46-11.85h19.08M327.32,142.44h-22.31l-.17.8-2.46,11.85-.25,1.2h11.34l.29-.29,11.85-11.85,1.71-1.71h0Z"/>
          </g>
          <g>
            <polygon class="cls-1" points="382.69 100.27 339.52 143.44 324.91 143.44 313.06 155.29 345.15 155.29 392.81 107.62 382.69 100.27"/>
            <path class="cls-1" d="M382.69,100.27l10.13,7.35-47.67,47.67h-32.09l11.85-11.85h14.61l43.17-43.17M382.58,98.96l-.6.6-42.88,42.88h-14.61l-.29.29-11.85,11.85-1.71,1.71h34.92l.29-.29,47.67-47.67.83-.83-.95-.69-10.13-7.35-.69-.5h0Z"/>
          </g>
        </g>
        <g id="Head">
          <path class="cls-1" d="M55.55,149.17c-.75,4.92-.38,9.93.92,14.73.88,3.25,1.63,7.68,1.35,12.94-.6,11.41-8.91,17.51-8.91,17.51l-11.18-3.47c-5.84-1.81-14.57-.22-19.24,3.74-19.77,16.77-9.12,43.38,11.63,45.8l7.76.91c-3.37,7.24-4.34,12.34-4.62,14.86-.11,1.02.56,1.97,1.56,2.2,10.72,2.44,24.51,3.57,45.68-2.35,33.91-9.48,45.58-30.05,45.58-30.05l-2.3-.81c-3.14-1.11-4.78-4.59-3.31-7.58,1.13-2.3,3.59-3.48,5.99-3,3.06.61,7.64,1.85,11.11,4.19,3.51,2.36,6.78,7.06,8.78,10.34,1.77,2.9.5,6.96-3.48,8.01-1.48.39-3.07-.08-4.23-1.08l-4.47-3.88c-12.6,15.49-17.71,22.7-42.51,33.9-20.83,9.41-48.72,7.8-57.06,7.05-1.28-.11-2.33.97-2.17,2.24,2.08,17.14,9.47,54.12,37.86,71.38,29.87,18.16,53.71,19.96,53.71,19.96,0,0,3.1,7.25,5.25,16.36,2.15,9.11,3.5,28.17,3.5,28.17l69.74-74.39-8.86-11.21-.13-6.98s6.1-1.35,21.01-18.76c14.91-17.41,17.91-29.47,17.91-29.47,4.1-.2,14.16,1.1,30.37-13.01,16.21-14.11,23.86-29.62,23.86-29.62-13.51,1.3-15.13-1.15-15.13-1.15,10.61-12.41,15.21-21.21,26.01-50.83,10.81-29.62,16.53-91.58,16.53-91.58,0,0-14.33,2.48-35.27,9.08-20.94,6.6-25.74,10.73-25.74,10.73,0,0,4.65-10.28,12.08-17.41,7.43-7.13,19.89-12.83,19.89-12.83,0,0-6.68-4.95-27.09-4.65-20.41.3-31.52,5.48-31.52,5.48,0,0,1.88-10.28,11.71-23.86,9.83-13.58,25.06-22.59,25.06-22.59,0,0-29.04-3.38-57.03,7.43-27.99,10.81-44.2,26.14-44.2,26.14,0,0,1.95-14.18,6-24.24,8.55-21.21,18.23-28.98,18.23-28.98-58.59,14.33-101.62,63.76-107.22,101.58,0,0-9.36,9.88-14.11,17.13-2.78,4.24-5.29,9.6-6.9,13.33-1.19,2.75-2.01,5.64-2.46,8.6h0ZM118.81,186.1l-1.88-3.97c-.58-1.22-1.59-2.2-2.82-2.76-8.21-3.72-15.24,2.06-15.02,8.95l.07,2.31-11.37,4.98-2.14-11.68c-.97-5.32.56-10.86,4.3-14.75,13.29-13.84,32.45-7.37,36.85,7.31l2.66,8.87-10.66.75ZM266.62,200.74c-25.76,30.84-35.25,11.31-35.25,11.31,33.05-13,40.91-48.72,44.99-81.98.16-1.31-1.09-2.34-2.34-1.91-11.31,3.91-54.87,21.55-58.07,62.52,0,0-10.73-5.85-7.88-20.41,2.81-14.35,19.34-45.34,83.38-63.47,1.33-.38,2.66.7,2.54,2.07-1.16,13.05-7.12,67.61-27.39,91.86Z"/>
          <path class="cls-1" d="M186.23,8.53s-9.68,7.77-18.23,28.98c-4.05,10.06-6,24.24-6,24.24,0,0,16.21-15.33,44.2-26.14,17.23-6.65,34.85-7.93,45.86-7.93,6.88,0,11.18.5,11.18.5,0,0-15.23,9.01-25.06,22.59-9.83,13.58-11.71,23.86-11.71,23.86,0,0,11.11-5.18,31.52-5.48.6,0,1.19-.01,1.77-.01,19.03,0,25.33,4.67,25.33,4.67,0,0-12.46,5.7-19.89,12.83-7.43,7.13-12.08,17.41-12.08,17.41,0,0,4.8-4.13,25.74-10.73,20.94-6.6,35.27-9.08,35.27-9.08,0,0-5.73,61.96-16.53,91.58-10.81,29.62-15.41,38.42-26.01,50.83,0,0,1.02,1.53,8.11,1.53,1.88,0,4.19-.11,7.02-.38,0,0-7.65,15.51-23.86,29.62-16.21,14.11-26.27,12.81-30.37,13.01,0,0-3,12.06-17.91,29.47-14.91,17.41-21.01,18.76-21.01,18.76l.13,6.98,8.86,11.21-69.74,74.39s-1.35-19.06-3.5-28.17c-2.15-9.11-5.25-16.36-5.25-16.36,0,0-23.84-1.8-53.71-19.96-28.4-17.27-35.79-54.24-37.86-71.38-.15-1.21.8-2.25,1.99-2.25.06,0,.12,0,.19,0,2.79.25,7.76.6,13.91.6,12.27,0,29.28-1.38,43.15-7.64,24.8-11.2,29.91-18.4,42.51-33.9l4.47,3.88c.88.77,2.01,1.22,3.15,1.22.36,0,.72-.04,1.07-.14,3.98-1.05,5.25-5.11,3.48-8.01-2-3.27-5.28-7.97-8.78-10.34-3.47-2.34-8.05-3.58-11.11-4.19-.36-.07-.71-.11-1.07-.11-2.03,0-3.96,1.14-4.92,3.1-1.47,2.99.16,6.47,3.31,7.58l2.3.81s-11.67,20.57-45.58,30.05c-11.38,3.18-20.63,4.33-28.41,4.33-6.7,0-12.32-.85-17.27-1.98-1-.23-1.67-1.18-1.56-2.2.28-2.52,1.25-7.61,4.62-14.86l-7.76-.91c-20.75-2.43-31.4-29.04-11.63-45.8,3.37-2.86,8.86-4.48,13.85-4.48,1.92,0,3.77.24,5.39.75l11.18,3.47s8.3-6.1,8.91-17.51c.28-5.26-.47-9.69-1.35-12.94-1.31-4.8-1.67-9.81-.92-14.73.45-2.96,1.27-5.85,2.46-8.6,1.61-3.73,4.12-9.09,6.9-13.33,4.75-7.25,14.11-17.13,14.11-17.13,5.6-37.82,48.63-87.25,107.22-101.58M215.97,190.68c3.2-40.98,46.75-58.62,58.07-62.52.2-.07.39-.1.58-.1,1.02,0,1.89.91,1.75,2.01-4.09,33.26-11.94,68.98-44.99,81.98,0,0,2.96,6.1,10.07,6.1,5.61,0,13.81-3.8,25.17-17.41,20.26-24.25,26.23-78.82,27.39-91.86.11-1.19-.87-2.15-1.99-2.15-.18,0-.36.02-.55.08-64.04,18.13-80.57,49.12-83.38,63.47-2.85,14.56,7.88,20.41,7.88,20.41M87.79,195.61l11.37-4.98-.07-2.31c-.17-5.4,4.1-10.12,9.91-10.12,1.6,0,3.33.36,5.1,1.16,1.23.56,2.25,1.54,2.82,2.76l1.88,3.97,10.66-.75-2.66-8.87c-2.71-9.03-11-14.95-20.08-14.95-5.68,0-11.66,2.32-16.78,7.64-3.74,3.9-5.27,9.44-4.3,14.75l2.14,11.68M190.34,6.49l-4.35,1.06c-59.31,14.5-102.12,64.21-107.92,102.09-1.46,1.56-9.6,10.33-14,17.04-2.81,4.29-5.35,9.7-6.98,13.48-1.22,2.82-2.07,5.79-2.53,8.85-.75,4.97-.43,10.06.95,15.14,1.1,4.05,1.55,8.3,1.32,12.63-.5,9.43-6.53,15.11-8.12,16.45l-10.67-3.31c-1.69-.52-3.6-.79-5.69-.79-5.51,0-11.06,1.81-14.5,4.72-9.25,7.84-12.88,18.76-9.73,29.21,3,9.94,11.6,17.14,21.89,18.35l6.4.75c-3,6.78-3.88,11.58-4.14,13.91-.17,1.53.83,2.94,2.33,3.28,6,1.37,11.56,2,17.5,2,8.79,0,18.18-1.43,28.68-4.36,33.92-9.48,45.7-29.66,46.18-30.52l.59-1.04-1.13-.4-2.3-.81c-1.31-.46-2.35-1.44-2.86-2.68-.47-1.15-.43-2.4.12-3.52.77-1.57,2.31-2.54,4.02-2.54.29,0,.59.03.87.09,3.08.62,7.45,1.82,10.75,4.04,3.31,2.23,6.44,6.68,8.49,10.03.71,1.16.83,2.59.33,3.84-.53,1.32-1.67,2.28-3.21,2.68-.26.07-.54.1-.82.1-.87,0-1.79-.36-2.5-.97l-4.47-3.88-.78-.68-.65.8-1.63,2.01c-11.33,13.98-17.02,21-40.51,31.6-13.83,6.24-30.87,7.56-42.74,7.56-5.97,0-10.81-.32-13.82-.59-.09,0-.18-.01-.28-.01-.86,0-1.68.37-2.25,1.01-.57.64-.84,1.5-.73,2.36,2.38,19.68,10.54,55.21,38.34,72.12,27.08,16.47,49.56,19.6,53.53,20.04.75,1.84,3.2,8.15,4.98,15.65,2.11,8.92,3.46,27.82,3.48,28.01l.16,2.28,1.57-1.67,69.74-74.39.59-.63-.53-.68-8.65-10.94-.11-5.93c2.13-.91,8.59-4.6,20.76-18.8,13-15.18,17.02-26.24,17.91-29.14.18,0,.36,0,.56,0,4.78-.06,14.73-.19,29.71-13.22,16.17-14.08,24.03-29.77,24.1-29.93l.79-1.61-1.79.17c-2.59.25-4.92.38-6.93.38-3.75,0-5.67-.44-6.58-.78,10.27-12.19,14.96-21.53,25.43-50.24,10.73-29.4,16.53-91.21,16.59-91.83l.12-1.3-1.29.22c-.14.02-14.64,2.56-35.4,9.11-12.64,3.99-19.46,7.08-22.92,8.95,1.94-3.56,5.55-9.44,10.25-13.95,7.22-6.93,19.49-12.59,19.61-12.64l1.54-.7-1.36-1.01c-.27-.2-6.78-4.86-25.92-4.86-.58,0-1.17,0-1.78.01-15.85.23-26.08,3.34-30.06,4.81,1-3.51,3.89-11.7,11.07-21.61,9.6-13.26,24.61-22.22,24.76-22.31l2.56-1.51-2.95-.34c-.18-.02-4.43-.51-11.29-.51-11.64,0-29.1,1.39-46.22,8-22.16,8.56-37.15,20.08-42.42,24.51.77-4.58,2.61-14.08,5.51-21.3,8.33-20.67,17.83-28.5,17.93-28.58l3.49-2.81h0ZM215.13,188.9c-2.65-2.05-8.15-7.74-6.06-18.45.89-4.56,4.48-16.59,18.43-29.78,14.76-13.95,36.37-25.03,64.24-32.92.09-.03.18-.04.27-.04.28,0,.55.12.75.33.11.12.28.37.25.73-.98,10.99-6.88,67.04-27.16,91.31-9.32,11.15-17.76,17.05-24.41,17.05-4.81,0-7.52-3.03-8.61-4.61,31.83-13.21,40.23-47.35,44.53-82.34.1-.8-.15-1.59-.68-2.19-.53-.6-1.28-.94-2.07-.94-.31,0-.61.05-.91.15-5.43,1.88-19.46,7.34-32.37,17.52-15.6,12.3-24.41,27.16-26.21,44.17h0ZM88.55,194.18l-1.91-10.43c-.93-5.09.58-10.28,4.04-13.88,5.82-6.06,11.95-7.33,16.06-7.34,8.74,0,16.6,5.85,19.12,14.24l2.3,7.67-8.73.61-1.58-3.36c-.68-1.43-1.85-2.58-3.32-3.25-1.84-.83-3.69-1.25-5.52-1.25-3.02,0-5.82,1.17-7.88,3.29-2.02,2.09-3.13,4.95-3.04,7.86l.05,1.63-9.59,4.2h0Z"/>
        </g>
      </g>
    </g>
    <g>
      <g id="Text-2" data-name="Text">
        <g>
          <rect class="cls-2" x="186.64" y="470.14" width="22.44" height="17.37"/>
          <g>
            <path class="cls-2" d="M42.24,433.1v6.32c0,1.94,1.58,3.52,3.52,3.52h18.65c2.76,0,5,2.24,5,5v55.59c0,2.76,2.24,5,5,5h5.61c2.76,0,5-2.24,5-5v-55.59c0-2.76,2.24-5,5-5h17.17c2.76,0,5-2.24,5-5v-3.36c0-2.76-2.24-5-5-5h-61.42c-1.94,0-3.52,1.58-3.52,3.52Z"/>
            <path class="cls-2" d="M107.18,429.58c2.76,0,5,2.24,5,5v3.36c0,2.76-2.24,5-5,5h-17.17c-2.76,0-5,2.24-5,5v55.59c0,2.76-2.24,5-5,5h-5.61c-2.76,0-5-2.24-5-5v-55.59c0-2.76-2.24-5-5-5h-18.65c-1.94,0-3.52-1.58-3.52-3.52v-6.32c0-1.94,1.58-3.52,3.52-3.52h61.42M107.18,428.58h-61.42c-2.49,0-4.52,2.03-4.52,4.52v6.32c0,2.49,2.03,4.52,4.52,4.52h18.65c2.21,0,4,1.79,4,4v55.59c0,3.31,2.69,6,6,6h5.61c3.31,0,6-2.69,6-6v-55.59c0-2.21,1.79-4,4-4h17.17c3.31,0,6-2.69,6-6v-3.36c0-3.31-2.69-6-6-6h0Z"/>
          </g>
          <g>
            <path class="cls-2" d="M134.86,449.89h-.61c-8.28,0-15,6.72-15,15v38.63c0,2.76,2.24,5,5,5h5.61c2.76,0,5-2.24,5-5v-33.02c0-2.76,2.24-5,5-5h14.71c2.76,0,5-2.24,5-5v-5.61c0-2.76-2.24-5-5-5h-19.71Z"/>
            <path class="cls-2" d="M154.58,449.89c2.76,0,5,2.24,5,5v5.61c0,2.76-2.24,5-5,5h-14.71c-2.76,0-5,2.24-5,5v33.02c0,2.76-2.24,5-5,5h-5.61c-2.76,0-5-2.24-5-5v-38.63c0-8.28,6.72-15,15-15h20.32M154.58,448.89h-20.32c-8.82,0-16,7.18-16,16v38.63c0,3.31,2.69,6,6,6h5.61c3.31,0,6-2.69,6-6v-33.02c0-2.21,1.79-4,4-4h14.71c3.31,0,6-2.69,6-6v-5.61c0-3.31-2.69-6-6-6h0Z"/>
          </g>
          <g>
            <path class="cls-2" d="M182.26,487.92v-17.42c0-2.76,2.24-5,5-5h21.87c2.76,0,5,2.24,5,5v17.42c0,2.76-2.24,5-5,5h-21.87c-2.76,0-5-2.24-5-5ZM166.65,464.89v28.63c0,8.28,6.72,15,15,15h33.09c8.28,0,15-6.72,15-15v-28.63c0-8.28-6.72-15-15-15h-33.09c-8.28,0-15,6.72-15,15Z"/>
            <path class="cls-2" d="M214.73,449.89c8.28,0,15,6.72,15,15v28.63c0,8.28-6.72,15-15,15h-33.09c-8.28,0-15-6.72-15-15v-28.63c0-8.28,6.72-15,15-15h33.09M187.26,492.92h21.87c2.76,0,5-2.24,5-5v-17.42c0-2.76-2.24-5-5-5h-21.87c-2.76,0-5,2.24-5,5v17.42c0,2.76,2.24,5,5,5M214.73,448.89h-33.09c-8.82,0-16,7.18-16,16v28.63c0,8.82,7.18,16,16,16h33.09c8.82,0,16-7.18,16-16v-28.63c0-8.82-7.18-16-16-16h0ZM187.26,491.92c-2.21,0-4-1.79-4-4v-17.42c0-2.21,1.79-4,4-4h21.87c2.21,0,4,1.79,4,4v17.42c0,2.21-1.79,4-4,4h-21.87Z"/>
          </g>
          <g>
            <rect class="cls-2" x="236.8" y="429.58" width="15.61" height="78.95" rx="5" ry="5"/>
            <path class="cls-2" d="M247.41,429.58c2.76,0,5,2.24,5,5v68.95c0,2.76-2.24,5-5,5h-5.61c-2.76,0-5-2.24-5-5v-68.95c0-2.76,2.24-5,5-5h5.61M247.41,428.58h-5.61c-3.31,0-6,2.69-6,6v68.95c0,3.31,2.69,6,6,6h5.61c3.31,0,6-2.69,6-6v-68.95c0-3.31-2.69-6-6-6h0Z"/>
          </g>
          <g>
            <rect class="cls-2" x="259.48" y="429.58" width="15.61" height="78.95" rx="5" ry="5"/>
            <path class="cls-2" d="M270.09,429.58c2.76,0,5,2.24,5,5v68.95c0,2.76-2.24,5-5,5h-5.61c-2.76,0-5-2.24-5-5v-68.95c0-2.76,2.24-5,5-5h5.61M270.09,428.58h-5.61c-3.31,0-6,2.69-6,6v68.95c0,3.31,2.69,6,6,6h5.61c3.31,0,6-2.69,6-6v-68.95c0-3.31-2.69-6-6-6h0Z"/>
          </g>
          <g>
            <rect class="cls-2" x="289.23" y="471.41" width="39.47" height="15.61" rx="5" ry="5"/>
            <path class="cls-2" d="M323.71,471.41c2.76,0,5,2.24,5,5v5.61c0,2.76-2.24,5-5,5h-29.47c-2.76,0-5-2.24-5-5v-5.61c0-2.76,2.24-5,5-5h29.47M323.71,470.41h-29.47c-3.31,0-6,2.69-6,6v5.61c0,3.31,2.69,6,6,6h29.47c3.31,0,6-2.69,6-6v-5.61c0-3.31-2.69-6-6-6h0Z"/>
          </g>
          <g>
            <rect class="cls-2" x="342.85" y="429.58" width="15.61" height="78.95" rx="5" ry="5"/>
            <path class="cls-2" d="M353.46,429.58c2.76,0,5,2.24,5,5v68.95c0,2.76-2.24,5-5,5h-5.61c-2.76,0-5-2.24-5-5v-68.95c0-2.76,2.24-5,5-5h5.61M353.46,428.58h-5.61c-3.31,0-6,2.69-6,6v68.95c0,3.31,2.69,6,6,6h5.61c3.31,0,6-2.69,6-6v-68.95c0-3.31-2.69-6-6-6h0Z"/>
          </g>
          <g>
            <path class="cls-2" d="M369.06,434.58v3.36c0,2.76,2.24,5,5,5h17.17c2.76,0,5,2.24,5,5v55.59c0,2.76,2.24,5,5,5h5.61c2.76,0,5-2.24,5-5v-55.59c0-2.76,2.24-5,5-5h17.17c2.76,0,5-2.24,5-5v-3.36c0-2.76-2.24-5-5-5h-59.94c-2.76,0-5,2.24-5,5Z"/>
            <path class="cls-2" d="M434,429.58c2.76,0,5,2.24,5,5v3.36c0,2.76-2.24,5-5,5h-17.17c-2.76,0-5,2.24-5,5v55.59c0,2.76-2.24,5-5,5h-5.61c-2.76,0-5-2.24-5-5v-55.59c0-2.76-2.24-5-5-5h-17.17c-2.76,0-5-2.24-5-5v-3.36c0-2.76,2.24-5,5-5h59.94M434,428.58h-59.94c-3.31,0-6,2.69-6,6v3.36c0,3.31,2.69,6,6,6h17.17c2.21,0,4,1.79,4,4v55.59c0,3.31,2.69,6,6,6h5.61c3.31,0,6-2.69,6-6v-55.59c0-2.21,1.79-4,4-4h17.17c3.31,0,6-2.69,6-6v-3.36c0-3.31-2.69-6-6-6h0Z"/>
          </g>
        </g>
        <g>
          <rect class="cls-4" x="186.64" y="470.14" width="22.44" height="17.37"/>
          <path d="M42.24,433.1v6.32c0,1.94,1.58,3.52,3.52,3.52h18.65c2.76,0,5,2.24,5,5v55.59c0,2.76,2.24,5,5,5h5.61c2.76,0,5-2.24,5-5v-55.59c0-2.76,2.24-5,5-5h17.17c2.76,0,5-2.24,5-5v-3.36c0-2.76-2.24-5-5-5h-61.42c-1.94,0-3.52,1.58-3.52,3.52Z"/>
          <path d="M134.86,449.89h-.61c-8.28,0-15,6.72-15,15v38.63c0,2.76,2.24,5,5,5h5.61c2.76,0,5-2.24,5-5v-33.02c0-2.76,2.24-5,5-5h14.71c2.76,0,5-2.24,5-5v-5.61c0-2.76-2.24-5-5-5h-19.71Z"/>
          <path d="M182.26,487.92v-17.42c0-2.76,2.24-5,5-5h21.87c2.76,0,5,2.24,5,5v17.42c0,2.76-2.24,5-5,5h-21.87c-2.76,0-5-2.24-5-5ZM166.65,464.89v28.63c0,8.28,6.72,15,15,15h33.09c8.28,0,15-6.72,15-15v-28.63c0-8.28-6.72-15-15-15h-33.09c-8.28,0-15,6.72-15,15Z"/>
          <rect x="236.8" y="429.58" width="15.61" height="78.95" rx="5" ry="5"/>
          <rect x="259.48" y="429.58" width="15.61" height="78.95" rx="5" ry="5"/>
          <rect class="cls-3" x="289.23" y="471.41" width="39.47" height="15.61" rx="5" ry="5"/>
          <rect class="cls-5" x="342.85" y="429.58" width="15.61" height="78.95" rx="5" ry="5"/>
          <path class="cls-5" d="M369.06,434.58v3.36c0,2.76,2.24,5,5,5h17.17c2.76,0,5,2.24,5,5v55.59c0,2.76,2.24,5,5,5h5.61c2.76,0,5-2.24,5-5v-55.59c0-2.76,2.24-5,5-5h17.17c2.76,0,5-2.24,5-5v-3.36c0-2.76-2.24-5-5-5h-59.94c-2.76,0-5,2.24-5,5Z"/>
        </g>
      </g>
      <g id="Mascot-3" data-name="Mascot">
        <g id="Fixes-2" data-name="Fixes">
          <ellipse class="cls-4" cx="400.77" cy="85.44" rx="9.66" ry="10.27"/>
          <circle class="cls-4" cx="449.32" cy="158.56" r="7.93"/>
          <ellipse class="cls-4" cx="432.66" cy="268.29" rx="8.43" ry="9.27"/>
          <circle class="cls-4" cx="377.55" cy="336.7" r="8.46"/>
          <ellipse class="cls-4" cx="299.21" cy="365.16" rx="8.55" ry="7.8"/>
          <path class="cls-4" d="M124.46,179.35s-.9-6.98-5.48-10.92c-4.58-3.94-14.82-6.15-20.56-2.29s-9.91,6.42-9.94,12.12,2.4,11.97,2.4,11.97l4.2-2.18s-1.31-4.43,2.4-10.09c3.71-5.67,12.94-5.44,13.7-5.1.75.34,8.82,8.07,8.82,8.07l4.47-1.58Z"/>
          <path class="cls-4" d="M290.85,109.54l-34.07,12.68-37.62,28.66-9.84,26.3,24.99-27.16s29-21.35,29.52-21.72c.53-.38,14.03-3.23,14.03-3.23l1.58,7.65s-8.71,34.07-8.9,34.48c-21.06,47.38-13.58,50.94,10.02,3.06,0,0,9.76-50,9.98-49.92s.3-10.43.3-10.43"/>
          <path class="cls-4" d="M126.38,220.13s1.02,10.42,1.47,10.53,13.7-1.25,13.7-1.25l-9.17-10.75-6,1.47Z"/>
        </g>
        <g id="Traces-2" data-name="Traces">
          <path class="cls-5" d="M401.24,61.89c-13.06,0-23.64,10.58-23.64,23.64s10.58,23.64,23.64,23.64,23.64-10.58,23.64-23.64-10.58-23.64-23.64-23.64ZM401.24,98.67c-7.25,0-13.13-5.88-13.13-13.13s5.88-13.13,13.13-13.13,13.13,5.88,13.13,13.13-5.88,13.13-13.13,13.13Z"/>
          <path class="cls-5" d="M450.07,134.49c-13.06,0-23.64,10.58-23.64,23.64s10.58,23.64,23.64,23.64,23.64-10.58,23.64-23.64-10.58-23.64-23.64-23.64ZM450.07,171.26c-7.25,0-13.13-5.88-13.13-13.13s5.88-13.13,13.13-13.13,13.13,5.88,13.13,13.13-5.88,13.13-13.13,13.13Z"/>
          <path class="cls-5" d="M432.66,244.65c-13.06,0-23.64,10.58-23.64,23.64s10.58,23.64,23.64,23.64,23.64-10.58,23.64-23.64-10.58-23.64-23.64-23.64ZM432.66,281.42c-7.25,0-13.13-5.88-13.13-13.13s5.88-13.13,13.13-13.13,13.13,5.88,13.13,13.13-5.88,13.13-13.13,13.13Z"/>
          <path class="cls-5" d="M378.63,312.49c-13.06,0-23.64,10.58-23.64,23.64s10.58,23.64,23.64,23.64,23.64-10.58,23.64-23.64-10.58-23.64-23.64-23.64ZM378.63,349.26c-7.25,0-13.13-5.88-13.13-13.13s5.88-13.13,13.13-13.13,13.13,5.88,13.13,13.13-5.88,13.13-13.13,13.13Z"/>
          <path class="cls-5" d="M299.38,341.31c-13.06,0-23.64,10.58-23.64,23.64s10.58,23.64,23.64,23.64,23.64-10.58,23.64-23.64-10.58-23.64-23.64-23.64ZM299.38,378.08c-7.25,0-13.13-5.88-13.13-13.13s5.88-13.13,13.13-13.13,13.13,5.88,13.13,13.13-5.88,13.13-13.13,13.13Z"/>
          <polygon class="cls-5" points="409.66 262.83 387.57 262.83 361 236.25 307.22 236.25 276.28 267.19 293.79 267.19 312.7 248.28 357.44 248.28 383.22 274.06 409.66 274.06 409.66 262.83"/>
          <polygon class="cls-5" points="265.35 325.63 227.91 325.63 216.71 336.83 261.13 336.83 279.84 354.23 287.17 345.91 265.35 325.63"/>
          <polygon class="cls-3" points="193.67 325.63 193.67 325.91 202.49 336.83 216.71 336.83 227.91 325.63 193.67 325.63"/>
          <polygon class="cls-5" points="397.08 153.55 360.45 190.17 320.01 190.17 308.07 202.12 365.86 202.12 402.8 165.17 427.7 165.17 427.7 153.55 397.08 153.55"/>
          <polygon class="cls-3" points="291.85 190.17 287.18 202.12 308.07 202.12 320.01 190.17 291.85 190.17"/>
          <polygon class="cls-5" points="330.19 283.43 263.59 283.43 251.42 295.61 327.41 295.61 357.44 325.64 364.09 317.34 330.19 283.43"/>
          <polygon class="cls-3" points="226.47 283.43 217.89 295.61 251.42 295.61 263.59 283.43 226.47 283.43"/>
          <polygon class="cls-3" points="305.83 143.44 303.36 155.29 313.06 155.29 324.91 143.44 305.83 143.44"/>
          <polygon class="cls-5" points="382.69 100.27 339.52 143.44 324.91 143.44 313.06 155.29 345.15 155.29 392.81 107.62 382.69 100.27"/>
        </g>
        <g id="Head-2" data-name="Head">
          <path d="M55.55,149.17c-.75,4.92-.38,9.93.92,14.73.88,3.25,1.63,7.68,1.35,12.94-.6,11.41-8.91,17.51-8.91,17.51l-11.18-3.47c-5.84-1.81-14.57-.22-19.24,3.74-19.77,16.77-9.12,43.38,11.63,45.8l7.76.91c-3.37,7.24-4.34,12.34-4.62,14.86-.11,1.02.56,1.97,1.56,2.2,10.72,2.44,24.51,3.57,45.68-2.35,33.91-9.48,45.58-30.05,45.58-30.05l-2.3-.81c-3.14-1.11-4.78-4.59-3.31-7.58,1.13-2.3,3.59-3.48,5.99-3,3.06.61,7.64,1.85,11.11,4.19,3.51,2.36,6.78,7.06,8.78,10.34,1.77,2.9.5,6.96-3.48,8.01-1.48.39-3.07-.08-4.23-1.08l-4.47-3.88c-12.6,15.49-17.71,22.7-42.51,33.9-20.83,9.41-48.72,7.8-57.06,7.05-1.28-.11-2.33.97-2.17,2.24,2.08,17.14,9.47,54.12,37.86,71.38,29.87,18.16,53.71,19.96,53.71,19.96,0,0,3.1,7.25,5.25,16.36,2.15,9.11,3.5,28.17,3.5,28.17l69.74-74.39-8.86-11.21-.13-6.98s6.1-1.35,21.01-18.76c14.91-17.41,17.91-29.47,17.91-29.47,4.1-.2,14.16,1.1,30.37-13.01,16.21-14.11,23.86-29.62,23.86-29.62-13.51,1.3-15.13-1.15-15.13-1.15,10.61-12.41,15.21-21.21,26.01-50.83,10.81-29.62,16.53-91.58,16.53-91.58,0,0-14.33,2.48-35.27,9.08-20.94,6.6-25.74,10.73-25.74,10.73,0,0,4.65-10.28,12.08-17.41,7.43-7.13,19.89-12.83,19.89-12.83,0,0-6.68-4.95-27.09-4.65-20.41.3-31.52,5.48-31.52,5.48,0,0,1.88-10.28,11.71-23.86,9.83-13.58,25.06-22.59,25.06-22.59,0,0-29.04-3.38-57.03,7.43-27.99,10.81-44.2,26.14-44.2,26.14,0,0,1.95-14.18,6-24.24,8.55-21.21,18.23-28.98,18.23-28.98-58.59,14.33-101.62,63.76-107.22,101.58,0,0-9.36,9.88-14.11,17.13-2.78,4.24-5.29,9.6-6.9,13.33-1.19,2.75-2.01,5.64-2.46,8.6h0ZM118.81,186.1l-1.88-3.97c-.58-1.22-1.59-2.2-2.82-2.76-8.21-3.72-15.24,2.06-15.02,8.95l.07,2.31-11.37,4.98-2.14-11.68c-.97-5.32.56-10.86,4.3-14.75,13.29-13.84,32.45-7.37,36.85,7.31l2.66,8.87-10.66.75ZM266.62,200.74c-25.76,30.84-35.25,11.31-35.25,11.31,33.05-13,40.91-48.72,44.99-81.98.16-1.31-1.09-2.34-2.34-1.91-11.31,3.91-54.87,21.55-58.07,62.52,0,0-10.73-5.85-7.88-20.41,2.81-14.35,19.34-45.34,83.38-63.47,1.33-.38,2.66.7,2.54,2.07-1.16,13.05-7.12,67.61-27.39,91.86Z"/>
        </g>
      </g>
    </g>
  </g>
  <polygon class="cls-4" points="256.42 199.86 235.08 213 243.45 214.64 256.13 207.67 256.42 199.86"/>
</svg>