<?xml version="1.0" encoding="UTF-8"?>
<svg id="Mascot" xmlns="http://www.w3.org/2000/svg" viewBox="0 0 484.3 418.7">
  <defs>
    <style>
      .cls-1 {
        fill: none;
        stroke: #fff;
        stroke-linecap: round;
        stroke-linejoin: round;
        stroke-width: 10px;
      }

      .cls-2 {
        fill: #005300;
      }

      .cls-3 {
        fill: #fff;
      }

      .cls-4 {
        fill: #77b903;
      }
    </style>
  </defs>
  <g id="Mascot-2" data-name="Mascot">
    <g>
      <g id="Fixes">
        <ellipse class="cls-1" cx="399.91" cy="84.94" rx="9.66" ry="10.27"/>
        <circle class="cls-1" cx="448.46" cy="158.06" r="7.93"/>
        <ellipse class="cls-1" cx="431.8" cy="267.79" rx="8.43" ry="9.27"/>
        <circle class="cls-1" cx="376.69" cy="336.19" r="8.46"/>
        <ellipse class="cls-1" cx="298.35" cy="364.66" rx="8.55" ry="7.8"/>
        <path class="cls-1" d="M123.6,178.85s-.9-6.98-5.48-10.92c-4.58-3.94-14.82-6.15-20.56-2.29s-9.91,6.42-9.94,12.12c-.04,5.7,2.4,11.97,2.4,11.97l4.2-2.18s-1.31-4.43,2.4-10.09c3.71-5.67,12.94-5.44,13.7-5.1.75.34,8.82,8.07,8.82,8.07l4.47-1.58Z"/>
        <path class="cls-1" d="M289.99,109.04l-34.07,12.68-37.62,28.66-9.84,26.3,24.99-27.16s29-21.35,29.52-21.72c.53-.38,14.03-3.23,14.03-3.23l1.58,7.65s-8.71,34.07-8.9,34.48c-21.06,47.38-13.58,50.94,10.02,3.06,0,0,9.76-50,9.98-49.92s.3-10.43.3-10.43"/>
        <path class="cls-1" d="M125.52,219.63s1.02,10.42,1.47,10.53,13.7-1.25,13.7-1.25l-9.17-10.75-6,1.47Z"/>
      </g>
      <g id="Traces">
        <g>
          <path class="cls-1" d="M400.38,61.39c-13.06,0-23.64,10.58-23.64,23.64s10.58,23.64,23.64,23.64,23.64-10.58,23.64-23.64-10.58-23.64-23.64-23.64ZM400.38,98.17c-7.25,0-13.13-5.88-13.13-13.13s5.88-13.13,13.13-13.13,13.13,5.88,13.13,13.13-5.88,13.13-13.13,13.13Z"/>
          <path class="cls-1" d="M400.38,61.39c13.06,0,23.64,10.58,23.64,23.64s-10.58,23.64-23.64,23.64-23.64-10.58-23.64-23.64,10.58-23.64,23.64-23.64M400.38,98.17c7.25,0,13.13-5.88,13.13-13.13s-5.88-13.13-13.13-13.13-13.13,5.88-13.13,13.13,5.88,13.13,13.13,13.13M400.38,60.39c-13.59,0-24.64,11.05-24.64,24.64s11.05,24.64,24.64,24.64,24.64-11.05,24.64-24.64-11.05-24.64-24.64-24.64h0ZM400.38,97.17c-6.69,0-12.13-5.44-12.13-12.13s5.44-12.13,12.13-12.13,12.13,5.44,12.13,12.13-5.44,12.13-12.13,12.13h0Z"/>
        </g>
        <g>
          <path class="cls-1" d="M449.21,133.99c-13.06,0-23.64,10.58-23.64,23.64s10.58,23.64,23.64,23.64,23.64-10.58,23.64-23.64-10.58-23.64-23.64-23.64ZM449.21,170.76c-7.25,0-13.13-5.88-13.13-13.13s5.88-13.13,13.13-13.13,13.13,5.88,13.13,13.13-5.88,13.13-13.13,13.13Z"/>
          <path class="cls-1" d="M449.21,133.99c13.06,0,23.64,10.58,23.64,23.64s-10.58,23.64-23.64,23.64-23.64-10.58-23.64-23.64,10.58-23.64,23.64-23.64M449.21,170.76c7.25,0,13.13-5.88,13.13-13.13s-5.88-13.13-13.13-13.13-13.13,5.88-13.13,13.13,5.88,13.13,13.13,13.13M449.21,132.99c-13.59,0-24.64,11.05-24.64,24.64s11.05,24.64,24.64,24.64,24.64-11.05,24.64-24.64-11.05-24.64-24.64-24.64h0ZM449.21,169.76c-6.69,0-12.13-5.44-12.13-12.13s5.44-12.13,12.13-12.13,12.13,5.44,12.13,12.13-5.44,12.13-12.13,12.13h0Z"/>
        </g>
        <g>
          <path class="cls-1" d="M431.8,244.15c-13.06,0-23.64,10.58-23.64,23.64s10.58,23.64,23.64,23.64,23.64-10.58,23.64-23.64-10.58-23.64-23.64-23.64ZM431.8,280.92c-7.25,0-13.13-5.88-13.13-13.13s5.88-13.13,13.13-13.13,13.13,5.88,13.13,13.13-5.88,13.13-13.13,13.13Z"/>
          <path class="cls-1" d="M431.8,244.15c13.06,0,23.64,10.58,23.64,23.64s-10.58,23.64-23.64,23.64-23.64-10.58-23.64-23.64,10.58-23.64,23.64-23.64M431.8,280.92c7.25,0,13.13-5.88,13.13-13.13s-5.88-13.13-13.13-13.13-13.13,5.88-13.13,13.13,5.88,13.13,13.13,13.13M431.8,243.15c-13.59,0-24.64,11.05-24.64,24.64s11.05,24.64,24.64,24.64,24.64-11.05,24.64-24.64-11.05-24.64-24.64-24.64h0ZM431.8,279.92c-6.69,0-12.13-5.44-12.13-12.13s5.44-12.13,12.13-12.13,12.13,5.44,12.13,12.13-5.44,12.13-12.13,12.13h0Z"/>
        </g>
        <g>
          <path class="cls-1" d="M377.77,311.99c-13.06,0-23.64,10.58-23.64,23.64s10.58,23.64,23.64,23.64,23.64-10.58,23.64-23.64-10.58-23.64-23.64-23.64ZM377.77,348.76c-7.25,0-13.13-5.88-13.13-13.13s5.88-13.13,13.13-13.13,13.13,5.88,13.13,13.13-5.88,13.13-13.13,13.13Z"/>
          <path class="cls-1" d="M377.77,311.99c13.06,0,23.64,10.58,23.64,23.64s-10.58,23.64-23.64,23.64-23.64-10.58-23.64-23.64,10.58-23.64,23.64-23.64M377.77,348.76c7.25,0,13.13-5.88,13.13-13.13s-5.88-13.13-13.13-13.13-13.13,5.88-13.13,13.13,5.88,13.13,13.13,13.13M377.77,310.99c-13.59,0-24.64,11.05-24.64,24.64s11.05,24.64,24.64,24.64,24.64-11.05,24.64-24.64-11.05-24.64-24.64-24.64h0ZM377.77,347.76c-6.69,0-12.13-5.44-12.13-12.13s5.44-12.13,12.13-12.13,12.13,5.44,12.13,12.13-5.44,12.13-12.13,12.13h0Z"/>
        </g>
        <g>
          <path class="cls-1" d="M298.52,340.81c-13.06,0-23.64,10.58-23.64,23.64s10.58,23.64,23.64,23.64,23.64-10.58,23.64-23.64-10.58-23.64-23.64-23.64ZM298.52,377.58c-7.25,0-13.13-5.88-13.13-13.13s5.88-13.13,13.13-13.13,13.13,5.88,13.13,13.13-5.88,13.13-13.13,13.13Z"/>
          <path class="cls-1" d="M298.52,340.81c13.06,0,23.64,10.58,23.64,23.64s-10.58,23.64-23.64,23.64-23.64-10.58-23.64-23.64,10.58-23.64,23.64-23.64M298.52,377.58c7.25,0,13.13-5.88,13.13-13.13s-5.88-13.13-13.13-13.13-13.13,5.88-13.13,13.13,5.88,13.13,13.13,13.13M298.52,339.81c-13.59,0-24.64,11.05-24.64,24.64s11.05,24.64,24.64,24.64,24.64-11.05,24.64-24.64-11.05-24.64-24.64-24.64h0ZM298.52,376.58c-6.69,0-12.13-5.44-12.13-12.13s5.44-12.13,12.13-12.13,12.13,5.44,12.13,12.13-5.44,12.13-12.13,12.13h0Z"/>
        </g>
        <g>
          <polygon class="cls-1" points="408.8 262.33 386.71 262.33 360.14 235.75 306.36 235.75 275.43 266.69 292.93 266.69 311.84 247.78 356.58 247.78 382.36 273.56 408.8 273.56 408.8 262.33"/>
          <path class="cls-1" d="M360.14,235.75l26.57,26.57h22.09v11.23h-26.43l-25.78-25.78h-44.74l-18.91,18.91h-17.5l30.94-30.94h53.77M360.55,234.75h-54.6l-.29.29-30.94,30.94-1.71,1.71h20.33l.29-.29,18.62-18.62h43.91l25.49,25.49.29.29h27.85v-13.23h-22.67l-26.28-26.28-.29-.29h0Z"/>
        </g>
        <g>
          <polygon class="cls-1" points="264.49 325.13 227.05 325.13 215.85 336.33 260.27 336.33 278.98 353.73 286.31 345.41 264.49 325.13"/>
          <path class="cls-1" d="M264.49,325.13l21.82,20.28-7.32,8.32-18.72-17.4h-44.41l11.2-11.2h37.44M264.88,324.13h-38.25l-.29.29-11.2,11.2-1.71,1.71h46.43l18.43,17.13.75.7.68-.77,7.32-8.32.64-.73-.71-.66-21.82-20.28-.29-.27h0Z"/>
        </g>
        <g>
          <polygon class="cls-1" points="192.81 325.13 192.81 325.41 201.63 336.33 215.85 336.33 227.05 325.13 192.81 325.13"/>
          <path class="cls-1" d="M227.05,325.13l-11.2,11.2h-14.23l-8.82-10.92v-.28h34.24M229.47,324.13h-37.66v1.64l.22.27,8.82,10.92.3.37h15.12l.29-.29,11.2-11.2,1.71-1.71h0Z"/>
        </g>
        <g>
          <polygon class="cls-1" points="396.22 153.05 359.59 189.67 319.16 189.67 307.21 201.61 365 201.61 401.94 164.67 426.84 164.67 426.84 153.05 396.22 153.05"/>
          <path class="cls-1" d="M426.84,153.05v11.63h-24.9l-36.94,36.94h-57.79l11.95-11.95h40.44l36.62-36.62h30.63M427.84,152.05h-32.04l-.29.29-36.33,36.33h-40.44l-.29.29-11.95,11.95-1.71,1.71h60.62l.29-.29,36.65-36.65h25.49v-13.63h0Z"/>
        </g>
        <g>
          <polygon class="cls-1" points="290.99 189.67 286.32 201.61 307.21 201.61 319.16 189.67 290.99 189.67"/>
          <path class="cls-1" d="M319.16,189.67l-11.95,11.95h-20.89l4.67-11.95h28.17M321.57,188.67h-31.27l-.25.64-4.67,11.95-.53,1.36h22.77l.29-.29,11.95-11.95,1.71-1.71h0Z"/>
        </g>
        <g>
          <polygon class="cls-1" points="329.33 282.93 262.74 282.93 250.56 295.11 326.55 295.11 356.58 325.14 363.23 316.83 329.33 282.93"/>
          <path class="cls-1" d="M329.33,282.93l33.91,33.91-6.65,8.3-30.03-30.03h-75.99l12.18-12.18h66.59M329.74,281.93h-67.42l-.29.29-12.18,12.18-1.71,1.71h77.99l29.74,29.74.79.79.7-.87,6.65-8.3.56-.7-.63-.63-33.91-33.91-.29-.29h0Z"/>
        </g>
        <g>
          <polygon class="cls-1" points="225.61 282.93 217.03 295.11 250.56 295.11 262.74 282.93 225.61 282.93"/>
          <path class="cls-1" d="M262.74,282.93l-12.18,12.18h-33.53l8.58-12.18h37.13M265.15,281.93h-40.06l-.3.42-8.58,12.18-1.11,1.58h35.87l.29-.29,12.18-12.18,1.71-1.71h0Z"/>
        </g>
        <g>
          <polygon class="cls-1" points="304.97 142.94 302.5 154.79 312.2 154.79 324.05 142.94 304.97 142.94"/>
          <path class="cls-1" d="M324.05,142.94l-11.85,11.85h-9.7l2.46-11.85h19.08M326.46,141.94h-22.31l-.17.8-2.46,11.85-.25,1.2h11.34l.29-.29,11.85-11.85,1.71-1.71h0Z"/>
        </g>
        <g>
          <polygon class="cls-1" points="381.83 99.77 338.66 142.94 324.05 142.94 312.2 154.79 344.29 154.79 391.96 107.12 381.83 99.77"/>
          <path class="cls-1" d="M381.83,99.77l10.13,7.35-47.67,47.67h-32.09l11.85-11.85h14.61l43.17-43.17M381.73,98.46l-.6.6-42.88,42.88h-14.61l-.29.29-11.85,11.85-1.71,1.71h34.91l.29-.29,47.67-47.67.83-.83-.95-.69-10.13-7.35-.69-.5h0Z"/>
        </g>
      </g>
      <g id="Head">
        <path class="cls-1" d="M54.69,148.67c-.75,4.92-.38,9.93.92,14.73.88,3.25,1.63,7.68,1.35,12.94-.6,11.41-8.91,17.51-8.91,17.51l-11.18-3.47c-5.84-1.81-14.57-.22-19.24,3.74-19.77,16.77-9.12,43.38,11.63,45.8l7.76.91c-3.37,7.24-4.34,12.34-4.62,14.86-.11,1.02.56,1.97,1.56,2.2,10.72,2.44,24.51,3.57,45.68-2.35,33.91-9.48,45.58-30.05,45.58-30.05l-2.3-.81c-3.14-1.11-4.78-4.59-3.31-7.58,1.13-2.3,3.59-3.48,5.99-3,3.06.61,7.64,1.85,11.11,4.19,3.51,2.36,6.78,7.06,8.78,10.34,1.77,2.9.5,6.96-3.48,8.01-1.48.39-3.07-.08-4.23-1.08l-4.47-3.88c-12.6,15.49-17.71,22.7-42.51,33.9-20.83,9.41-48.72,7.8-57.06,7.05-1.28-.11-2.33.97-2.17,2.24,2.08,17.14,9.47,54.12,37.86,71.38,29.87,18.16,53.71,19.96,53.71,19.96,0,0,3.1,7.25,5.25,16.36,2.15,9.11,3.5,28.17,3.5,28.17l69.74-74.39-8.86-11.21-.13-6.98s6.1-1.35,21.01-18.76c14.91-17.41,17.91-29.47,17.91-29.47,4.1-.2,14.16,1.1,30.37-13.01,16.21-14.11,23.86-29.62,23.86-29.62-13.51,1.3-15.13-1.15-15.13-1.15,10.61-12.41,15.21-21.21,26.01-50.83,10.81-29.62,16.53-91.58,16.53-91.58,0,0-14.33,2.48-35.27,9.08-20.94,6.6-25.74,10.73-25.74,10.73,0,0,4.65-10.28,12.08-17.41,7.43-7.13,19.89-12.83,19.89-12.83,0,0-6.68-4.95-27.09-4.65-20.41.3-31.52,5.48-31.52,5.48,0,0,1.88-10.28,11.71-23.86,9.83-13.58,25.06-22.59,25.06-22.59,0,0-29.04-3.38-57.03,7.43-27.99,10.81-44.2,26.14-44.2,26.14,0,0,1.95-14.18,6-24.24,8.55-21.21,18.23-28.98,18.23-28.98-58.59,14.33-101.62,63.76-107.22,101.58,0,0-9.36,9.88-14.11,17.13-2.78,4.24-5.29,9.6-6.9,13.33-1.19,2.75-2.01,5.64-2.46,8.6h0ZM117.95,185.6l-1.88-3.97c-.58-1.22-1.59-2.2-2.82-2.76-8.21-3.72-15.24,2.06-15.02,8.95l.07,2.31-11.37,4.98-2.14-11.68c-.97-5.32.56-10.86,4.3-14.75,13.29-13.84,32.45-7.37,36.85,7.31l2.66,8.87-10.66.75ZM265.76,200.23c-25.76,30.84-35.25,11.31-35.25,11.31,33.05-13,40.91-48.72,44.99-81.98.16-1.31-1.09-2.34-2.34-1.91-11.31,3.91-54.87,21.55-58.07,62.52,0,0-10.73-5.85-7.88-20.41,2.81-14.35,19.34-45.34,83.38-63.47,1.33-.38,2.66.7,2.54,2.07-1.16,13.05-7.12,67.61-27.39,91.86Z"/>
        <path class="cls-1" d="M185.37,8.03s-9.68,7.77-18.23,28.98c-4.05,10.06-6,24.24-6,24.24,0,0,16.21-15.33,44.2-26.14,17.23-6.65,34.85-7.93,45.86-7.93,6.88,0,11.18.5,11.18.5,0,0-15.23,9.01-25.06,22.59-9.83,13.58-11.71,23.86-11.71,23.86,0,0,11.11-5.18,31.52-5.48.6,0,1.19-.01,1.77-.01,19.03,0,25.33,4.67,25.33,4.67,0,0-12.46,5.7-19.89,12.83-7.43,7.13-12.08,17.41-12.08,17.41,0,0,4.8-4.13,25.74-10.73,20.94-6.6,35.27-9.08,35.27-9.08,0,0-5.73,61.96-16.53,91.58-10.81,29.62-15.41,38.42-26.01,50.83,0,0,1.02,1.53,8.11,1.53,1.88,0,4.19-.11,7.02-.38,0,0-7.65,15.51-23.86,29.62-16.21,14.11-26.27,12.81-30.37,13.01,0,0-3,12.06-17.91,29.47-14.91,17.41-21.01,18.76-21.01,18.76l.13,6.98,8.86,11.21-69.74,74.39s-1.35-19.06-3.5-28.17c-2.15-9.11-5.25-16.36-5.25-16.36,0,0-23.84-1.8-53.71-19.96-28.4-17.27-35.79-54.24-37.86-71.38-.15-1.21.8-2.25,1.99-2.25.06,0,.12,0,.19,0,2.79.25,7.76.6,13.91.6,12.27,0,29.28-1.38,43.15-7.64,24.8-11.2,29.91-18.4,42.51-33.9l4.47,3.88c.88.77,2.01,1.22,3.15,1.22.36,0,.72-.04,1.07-.14,3.98-1.05,5.25-5.11,3.48-8.01-2-3.27-5.28-7.97-8.78-10.34-3.47-2.34-8.05-3.58-11.11-4.19-.36-.07-.71-.11-1.07-.11-2.03,0-3.96,1.14-4.92,3.1-1.47,2.99.16,6.47,3.31,7.58l2.3.81s-11.67,20.57-45.58,30.05c-11.38,3.18-20.63,4.33-28.41,4.33-6.7,0-12.32-.85-17.27-1.98-1-.23-1.67-1.18-1.56-2.2.28-2.52,1.25-7.61,4.62-14.86l-7.76-.91c-20.75-2.43-31.4-29.04-11.63-45.8,3.37-2.86,8.86-4.48,13.85-4.48,1.92,0,3.77.24,5.39.74l11.18,3.47s8.3-6.1,8.91-17.51c.28-5.26-.47-9.69-1.35-12.94-1.31-4.8-1.67-9.81-.92-14.73.45-2.96,1.27-5.85,2.46-8.6,1.61-3.73,4.12-9.09,6.9-13.33,4.75-7.25,14.11-17.13,14.11-17.13,5.6-37.82,48.63-87.25,107.22-101.58M215.11,190.18c3.2-40.98,46.75-58.62,58.07-62.52.2-.07.39-.1.58-.1,1.02,0,1.89.91,1.75,2.01-4.09,33.26-11.94,68.98-44.99,81.98,0,0,2.96,6.1,10.07,6.1,5.61,0,13.81-3.8,25.17-17.41,20.26-24.25,26.23-78.82,27.39-91.86.11-1.19-.87-2.15-1.99-2.15-.18,0-.36.02-.55.08-64.04,18.13-80.57,49.12-83.38,63.47-2.85,14.56,7.88,20.41,7.88,20.41M86.93,195.11l11.37-4.98-.07-2.31c-.17-5.4,4.1-10.12,9.91-10.12,1.6,0,3.33.36,5.1,1.16,1.23.56,2.25,1.54,2.82,2.76l1.88,3.97,10.66-.75-2.66-8.87c-2.71-9.03-11-14.95-20.08-14.95-5.68,0-11.66,2.32-16.78,7.64-3.74,3.9-5.27,9.44-4.3,14.75l2.14,11.68M189.49,5.99l-4.35,1.06c-59.31,14.51-102.12,64.21-107.92,102.09-1.46,1.56-9.6,10.33-14,17.04-2.81,4.29-5.35,9.7-6.98,13.48-1.22,2.82-2.07,5.79-2.53,8.85-.75,4.97-.43,10.06.95,15.14,1.1,4.05,1.55,8.3,1.32,12.63-.49,9.39-6.53,15.1-8.12,16.45l-10.67-3.31c-1.69-.52-3.6-.79-5.69-.79-5.51,0-11.06,1.81-14.5,4.72-9.25,7.84-12.88,18.76-9.73,29.21,3,9.94,11.6,17.14,21.89,18.35l6.4.75c-3,6.78-3.88,11.58-4.14,13.91-.17,1.53.83,2.94,2.33,3.28,6,1.37,11.56,2,17.5,2,8.79,0,18.18-1.43,28.68-4.36,33.92-9.48,45.7-29.66,46.18-30.52l.59-1.04-1.13-.4-2.3-.81c-1.31-.46-2.35-1.44-2.86-2.68-.47-1.15-.43-2.4.12-3.52.77-1.57,2.31-2.54,4.02-2.54.29,0,.59.03.87.09,3.08.62,7.45,1.82,10.75,4.04,3.31,2.23,6.44,6.68,8.49,10.03.71,1.16.83,2.59.33,3.84-.53,1.32-1.67,2.28-3.21,2.68-.26.07-.54.1-.82.1-.87,0-1.78-.36-2.5-.97l-4.47-3.88-.78-.68-.65.8-1.63,2.01c-11.33,13.98-17.02,21-40.51,31.6-13.83,6.24-30.87,7.56-42.74,7.56-5.97,0-10.81-.32-13.82-.59-.09,0-.18-.01-.28-.01-.86,0-1.68.37-2.25,1.01s-.84,1.5-.73,2.36c2.38,19.68,10.54,55.21,38.34,72.12,27.08,16.47,49.56,19.6,53.53,20.04.75,1.84,3.2,8.15,4.98,15.65,2.11,8.92,3.46,27.82,3.48,28.01l.16,2.28,1.57-1.67,69.74-74.39.59-.63-.53-.68-8.65-10.94-.11-5.93c2.13-.91,8.59-4.6,20.76-18.8,13-15.18,17.02-26.24,17.91-29.14.18,0,.36,0,.56,0,4.78-.06,14.73-.19,29.71-13.22,16.17-14.08,24.03-29.77,24.1-29.93l.79-1.61-1.79.17c-2.59.25-4.92.38-6.93.38-3.75,0-5.67-.44-6.58-.78,10.27-12.19,14.96-21.53,25.43-50.23,10.73-29.4,16.53-91.21,16.59-91.83l.12-1.3-1.29.22c-.14.02-14.64,2.56-35.4,9.11-12.64,3.99-19.46,7.08-22.92,8.95,1.94-3.56,5.55-9.44,10.25-13.95,7.22-6.93,19.49-12.59,19.61-12.64l1.54-.7-1.36-1.01c-.27-.2-6.78-4.86-25.92-4.86-.58,0-1.17,0-1.78.01-15.85.23-26.08,3.34-30.06,4.81,1-3.51,3.89-11.7,11.07-21.61,9.59-13.25,24.61-22.22,24.76-22.31l2.55-1.51-2.95-.34c-.18-.02-4.43-.51-11.29-.51-11.64,0-29.1,1.39-46.22,8-22.16,8.56-37.15,20.08-42.42,24.51.77-4.58,2.61-14.08,5.51-21.3,8.33-20.67,17.83-28.5,17.93-28.58l3.49-2.81h0ZM214.27,188.4c-2.65-2.05-8.15-7.74-6.06-18.45.89-4.56,4.48-16.59,18.43-29.78,14.76-13.95,36.37-25.03,64.24-32.92.09-.03.18-.04.27-.04.28,0,.55.12.75.33.11.12.28.37.25.73-.98,10.99-6.88,67.04-27.16,91.31-9.32,11.15-17.76,17.05-24.41,17.05-4.81,0-7.52-3.03-8.61-4.61,31.83-13.21,40.23-47.35,44.53-82.34.1-.8-.15-1.59-.68-2.19-.53-.6-1.28-.94-2.07-.94-.31,0-.61.05-.91.15-5.43,1.88-19.46,7.34-32.37,17.52-15.6,12.3-24.41,27.16-26.21,44.17h0ZM87.69,193.68l-1.91-10.43c-.93-5.09.58-10.28,4.04-13.88,5.82-6.06,11.95-7.33,16.06-7.34,8.74,0,16.6,5.85,19.12,14.24l2.3,7.67-8.73.61-1.58-3.36c-.68-1.43-1.85-2.58-3.32-3.25-1.84-.83-3.69-1.25-5.52-1.25-3.02,0-5.82,1.17-7.88,3.29-2.02,2.09-3.13,4.95-3.04,7.86l.05,1.63-9.59,4.2h0Z"/>
      </g>
    </g>
    <g>
      <g id="Fixes-2" data-name="Fixes">
        <ellipse class="cls-3" cx="399.91" cy="84.94" rx="9.66" ry="10.27"/>
        <circle class="cls-3" cx="448.46" cy="158.06" r="7.93"/>
        <ellipse class="cls-3" cx="431.8" cy="267.79" rx="8.43" ry="9.27"/>
        <circle class="cls-3" cx="376.69" cy="336.19" r="8.46"/>
        <ellipse class="cls-3" cx="298.35" cy="364.66" rx="8.55" ry="7.8"/>
        <path class="cls-3" d="M123.6,178.85s-.9-6.98-5.48-10.92c-4.58-3.94-14.82-6.15-20.56-2.29s-9.91,6.42-9.94,12.12c-.04,5.7,2.4,11.97,2.4,11.97l4.2-2.18s-1.31-4.43,2.4-10.09c3.71-5.67,12.94-5.44,13.7-5.1.75.34,8.82,8.07,8.82,8.07l4.47-1.58Z"/>
        <path class="cls-3" d="M289.99,109.04l-34.07,12.68-37.62,28.66-9.84,26.3,24.99-27.16s29-21.35,29.52-21.72c.53-.38,14.03-3.23,14.03-3.23l1.58,7.65s-8.71,34.07-8.9,34.48c-21.06,47.38-13.58,50.94,10.02,3.06,0,0,9.76-50,9.98-49.92s.3-10.43.3-10.43"/>
        <path class="cls-3" d="M125.52,219.63s1.02,10.42,1.47,10.53,13.7-1.25,13.7-1.25l-9.17-10.75-6,1.47Z"/>
      </g>
      <g id="Traces-2" data-name="Traces">
        <path class="cls-4" d="M400.38,61.39c-13.06,0-23.64,10.58-23.64,23.64s10.58,23.64,23.64,23.64,23.64-10.58,23.64-23.64-10.58-23.64-23.64-23.64ZM400.38,98.17c-7.25,0-13.13-5.88-13.13-13.13s5.88-13.13,13.13-13.13,13.13,5.88,13.13,13.13-5.88,13.13-13.13,13.13Z"/>
        <path class="cls-4" d="M449.21,133.99c-13.06,0-23.64,10.58-23.64,23.64s10.58,23.64,23.64,23.64,23.64-10.58,23.64-23.64-10.58-23.64-23.64-23.64ZM449.21,170.76c-7.25,0-13.13-5.88-13.13-13.13s5.88-13.13,13.13-13.13,13.13,5.88,13.13,13.13-5.88,13.13-13.13,13.13Z"/>
        <path class="cls-4" d="M431.8,244.15c-13.06,0-23.64,10.58-23.64,23.64s10.58,23.64,23.64,23.64,23.64-10.58,23.64-23.64-10.58-23.64-23.64-23.64ZM431.8,280.92c-7.25,0-13.13-5.88-13.13-13.13s5.88-13.13,13.13-13.13,13.13,5.88,13.13,13.13-5.88,13.13-13.13,13.13Z"/>
        <path class="cls-4" d="M377.77,311.99c-13.06,0-23.64,10.58-23.64,23.64s10.58,23.64,23.64,23.64,23.64-10.58,23.64-23.64-10.58-23.64-23.64-23.64ZM377.77,348.76c-7.25,0-13.13-5.88-13.13-13.13s5.88-13.13,13.13-13.13,13.13,5.88,13.13,13.13-5.88,13.13-13.13,13.13Z"/>
        <path class="cls-4" d="M298.52,340.81c-13.06,0-23.64,10.58-23.64,23.64s10.58,23.64,23.64,23.64,23.64-10.58,23.64-23.64-10.58-23.64-23.64-23.64ZM298.52,377.58c-7.25,0-13.13-5.88-13.13-13.13s5.88-13.13,13.13-13.13,13.13,5.88,13.13,13.13-5.88,13.13-13.13,13.13Z"/>
        <polygon class="cls-4" points="408.8 262.33 386.71 262.33 360.14 235.75 306.36 235.75 275.43 266.69 292.93 266.69 311.84 247.78 356.58 247.78 382.36 273.56 408.8 273.56 408.8 262.33"/>
        <polygon class="cls-4" points="264.49 325.13 227.05 325.13 215.85 336.33 260.27 336.33 278.98 353.73 286.31 345.41 264.49 325.13"/>
        <polygon class="cls-2" points="192.81 325.13 192.81 325.41 201.63 336.33 215.85 336.33 227.05 325.13 192.81 325.13"/>
        <polygon class="cls-4" points="396.22 153.05 359.59 189.67 319.16 189.67 307.21 201.61 365 201.61 401.94 164.67 426.84 164.67 426.84 153.05 396.22 153.05"/>
        <polygon class="cls-2" points="290.99 189.67 286.32 201.61 307.21 201.61 319.16 189.67 290.99 189.67"/>
        <polygon class="cls-4" points="329.33 282.93 262.74 282.93 250.56 295.11 326.55 295.11 356.58 325.14 363.23 316.83 329.33 282.93"/>
        <polygon class="cls-2" points="225.61 282.93 217.03 295.11 250.56 295.11 262.74 282.93 225.61 282.93"/>
        <polygon class="cls-2" points="304.97 142.94 302.5 154.79 312.2 154.79 324.05 142.94 304.97 142.94"/>
        <polygon class="cls-4" points="381.83 99.77 338.66 142.94 324.05 142.94 312.2 154.79 344.29 154.79 391.96 107.12 381.83 99.77"/>
      </g>
      <g id="Head-2" data-name="Head">
        <path d="M54.69,148.67c-.75,4.92-.38,9.93.92,14.73.88,3.25,1.63,7.68,1.35,12.94-.6,11.41-8.91,17.51-8.91,17.51l-11.18-3.47c-5.84-1.81-14.57-.22-19.24,3.74-19.77,16.77-9.12,43.38,11.63,45.8l7.76.91c-3.37,7.24-4.34,12.34-4.62,14.86-.11,1.02.56,1.97,1.56,2.2,10.72,2.44,24.51,3.57,45.68-2.35,33.91-9.48,45.58-30.05,45.58-30.05l-2.3-.81c-3.14-1.11-4.78-4.59-3.31-7.58,1.13-2.3,3.59-3.48,5.99-3,3.06.61,7.64,1.85,11.11,4.19,3.51,2.36,6.78,7.06,8.78,10.34,1.77,2.9.5,6.96-3.48,8.01-1.48.39-3.07-.08-4.23-1.08l-4.47-3.88c-12.6,15.49-17.71,22.7-42.51,33.9-20.83,9.41-48.72,7.8-57.06,7.05-1.28-.11-2.33.97-2.17,2.24,2.08,17.14,9.47,54.12,37.86,71.38,29.87,18.16,53.71,19.96,53.71,19.96,0,0,3.1,7.25,5.25,16.36,2.15,9.11,3.5,28.17,3.5,28.17l69.74-74.39-8.86-11.21-.13-6.98s6.1-1.35,21.01-18.76c14.91-17.41,17.91-29.47,17.91-29.47,4.1-.2,14.16,1.1,30.37-13.01,16.21-14.11,23.86-29.62,23.86-29.62-13.51,1.3-15.13-1.15-15.13-1.15,10.61-12.41,15.21-21.21,26.01-50.83,10.81-29.62,16.53-91.58,16.53-91.58,0,0-14.33,2.48-35.27,9.08-20.94,6.6-25.74,10.73-25.74,10.73,0,0,4.65-10.28,12.08-17.41,7.43-7.13,19.89-12.83,19.89-12.83,0,0-6.68-4.95-27.09-4.65-20.41.3-31.52,5.48-31.52,5.48,0,0,1.88-10.28,11.71-23.86,9.83-13.58,25.06-22.59,25.06-22.59,0,0-29.04-3.38-57.03,7.43-27.99,10.81-44.2,26.14-44.2,26.14,0,0,1.95-14.18,6-24.24,8.55-21.21,18.23-28.98,18.23-28.98-58.59,14.33-101.62,63.76-107.22,101.58,0,0-9.36,9.88-14.11,17.13-2.78,4.24-5.29,9.6-6.9,13.33-1.19,2.75-2.01,5.64-2.46,8.6h0ZM117.95,185.6l-1.88-3.97c-.58-1.22-1.59-2.2-2.82-2.76-8.21-3.72-15.24,2.06-15.02,8.95l.07,2.31-11.37,4.98-2.14-11.68c-.97-5.32.56-10.86,4.3-14.75,13.29-13.84,32.45-7.37,36.85,7.31l2.66,8.87-10.66.75ZM265.76,200.23c-25.76,30.84-35.25,11.31-35.25,11.31,33.05-13,40.91-48.72,44.99-81.98.16-1.31-1.09-2.34-2.34-1.91-11.31,3.91-54.87,21.55-58.07,62.52,0,0-10.73-5.85-7.88-20.41,2.81-14.35,19.34-45.34,83.38-63.47,1.33-.38,2.66.7,2.54,2.07-1.16,13.05-7.12,67.61-27.39,91.86Z"/>
      </g>
    </g>
  </g>
  <path class="cls-3" d="M258.51,195.34l-21.57,16.42,6.91,3.79s15.06-11.32,15.17-11.49-.51-8.72-.51-8.72Z"/>
</svg>